#N canvas 610 58 631 640 10;
#X floatatom 119 -13 3 0 0 0 - - -, f 3;
#X obj 119 -39 keyname;
#X symbolatom 163 -12 10 0 0 0 - - -, f 10;
#X obj 119 6 change;
#X obj 123 31 pack f s;
#X msg 122 54 \$2 \$1;
#X obj 186 100 sel 0 1;
#X obj 145 133 tgl 15 0 empty empty B 2 -5 0 10 -262144 -1 -1 0 1;
#X obj 123 133 tgl 15 0 empty empty A 2 -5 0 10 -262144 -1 -1 0 1;
#X obj 123 103 sel 0 1;
#X obj 124 170 s kbdftA;
#X obj 188 169 s kbdftB;
#X obj 179 217 outlet;
#X obj 128 218 outlet;
#X obj 123 75 route d l D L;
#X text 250 185 3 7 Backspace \; Control_L Space Down \;;
#X connect 0 0 3 0;
#X connect 1 0 0 0;
#X connect 1 1 2 0;
#X connect 2 0 4 1;
#X connect 3 0 4 0;
#X connect 4 0 5 0;
#X connect 5 0 14 0;
#X connect 6 1 7 0;
#X connect 7 0 11 0;
#X connect 7 0 12 0;
#X connect 8 0 10 0;
#X connect 8 0 13 0;
#X connect 9 1 8 0;
#X connect 14 0 9 0;
#X connect 14 1 6 0;
#X connect 14 2 9 0;
#X connect 14 3 6 0;
#X coords 0 640 1 639 85 60 0;
