#N canvas 122 79 1351 686 10;
#X obj 11 26 loadbang;
#X obj 14 106 bng 15 250 50 0 empty empty empty 17 7 0 10 -262144 -1
-1;
#X obj 15 132 t b b b b b;
#X obj 206 286 bng 15 250 50 0 empty empty end 0 -6 0 8 -262144 -1
-1;
#X obj 146 338 f;
#X obj 193 339 + 1;
#X msg 828 275 0;
#X obj 146 307 bng 15 250 50 0 empty empty empty 17 7 0 10 -262144
-1 -1;
#X floatatom 146 360 5 0 0 0 - - -, f 5;
#X obj 127 285 t f b;
#X obj 123 460 send;
#X symbolatom 144 415 10 0 0 0 - - -, f 10;
#X msg 145 387 symbol a\$1;
#X obj 996 277 bng 15 250 50 0 empty empty end 0 -6 0 8 -262144 -1
-1;
#X text 912 177 list-drip: drips or serializes a list \, that is \,
it sends all elements one after another.;
#X obj 936 329 f;
#X obj 983 330 + 1;
#X obj 936 298 bng 15 250 50 0 empty empty empty 17 7 0 10 -262144
-1 -1;
#X floatatom 936 351 5 0 0 0 - - -, f 5;
#X obj 917 276 t f b;
#X obj 913 451 send;
#X symbolatom 934 406 10 0 0 0 - - -, f 10;
#X msg 915 221 0 0 0 0 0 0 0 0 0 0 0 0;
#X msg 935 378 symbol d\$1;
#X text 125 154 analogs;
#X text 913 158 digitals;
#X msg 62 280 -4;
#X obj 200 460 print;
#X text 127 175 a-3 \, a-2 \, a-1 are the seleffs in reverse order
\; slot3 \, slot2 \, slot1;
#X obj 125 257 ../list-abs/list-drip;
#X obj 915 248 ../list-abs/list-drip;
#X obj 14 70 delay 500 1 msec;
#X msg 128 217 0 0 0 0 0.8 0.4 0.8 0.5 0.6 0.5 0.75 0.98 0.62 0.64557
0.475 0.5 0.5 0.5 0.5 1 0.5 0.5 0.5 1 0.5 0.5 0.5 1 3000, f 114;
#X connect 0 0 31 0;
#X connect 1 0 2 0;
#X connect 2 0 32 0;
#X connect 2 1 22 0;
#X connect 2 3 26 0;
#X connect 2 4 6 0;
#X connect 4 0 5 0;
#X connect 4 0 8 0;
#X connect 5 0 4 1;
#X connect 6 0 15 0;
#X connect 7 0 4 0;
#X connect 8 0 12 0;
#X connect 9 0 10 0;
#X connect 9 1 7 0;
#X connect 11 0 10 1;
#X connect 12 0 11 0;
#X connect 15 0 16 0;
#X connect 15 0 18 0;
#X connect 16 0 15 1;
#X connect 17 0 15 0;
#X connect 18 0 23 0;
#X connect 19 0 20 0;
#X connect 19 1 17 0;
#X connect 21 0 20 1;
#X connect 22 0 30 0;
#X connect 23 0 21 0;
#X connect 26 0 4 0;
#X connect 29 0 9 0;
#X connect 29 1 3 0;
#X connect 30 0 19 0;
#X connect 30 1 13 0;
#X connect 31 0 1 0;
#X connect 32 0 29 0;
