#N canvas 12 54 1425 818 10;
#X obj 68 51 inlet;
#X obj 33 622 outlet;
#X msg 602 465 0 0 0 0 0 0 0 0 0 0 0 0 0 0 0 0 0 0 0 0 0 0 0;
#X obj 603 489 text set \$0-matrix;
#X obj 439 157 text define -k \$0-matrix;
#A set 0 0 1 0 0 0 0 0 0 0 0 0 0 0 0 0 0 0 0 0 0 0 0 \;;
#X obj 29 478 bng 15 250 50 0 empty empty empty 17 7 0 10 -262144 -1
-1;
#X text 51 475 bang to output list;
#X obj 29 522 list trim;
#X obj 29 502 text tolist \$0-matrix;
#X obj 424 39 loadbang;
#X floatatom 227 360 5 0 0 0 - - -, f 5;
#X msg 151 360 1;
#X obj 424 61 t b b;
#X msg 442 112 clear;
#X obj 68 115 t b b f b b;
#X obj 149 386 text set \$0-matrix;
#X obj 318 470 bng 15 250 50 0 empty empty empty 17 7 0 10 -262144
-1 -1;
#X text 340 467 bang to output list;
#X obj 318 514 list trim;
#X obj 318 494 text tolist \$0-matrix;
#X connect 0 0 14 0;
#X connect 2 0 3 0;
#X connect 5 0 8 0;
#X connect 7 0 1 0;
#X connect 8 0 7 0;
#X connect 9 0 12 0;
#X connect 10 0 15 2;
#X connect 11 0 15 0;
#X connect 12 0 2 0;
#X connect 12 1 13 0;
#X connect 13 0 4 0;
#X connect 14 0 5 0;
#X connect 14 1 11 0;
#X connect 14 2 10 0;
#X connect 14 3 16 0;
#X connect 14 4 2 0;
#X connect 16 0 19 0;
#X connect 18 0 1 0;
#X connect 19 0 18 0;
