#N canvas 12 54 1425 818 10;
#X obj 0 0 cnv 15 302 220 empty empty empty 20 12 0 14 -128992 -262144
0;
#X obj 7 121 hsl 280 28 -0.05 0.05 0 0 empty empty -1<---------Playback_Speed-------->+1
12 14 0 12 -262144 -1 -1 0 1;
#X obj 217 73 bng 15 250 50 0 empty empty reset_spd 17 7 0 10 -262144
-1 -1;
#X obj 7 153 hsl 280 28 0 1 0 0 empty empty GOTO 12 14 0 24 -262144
-1 -1 0 1;
#X obj 34 525 line 20;
#X msg 35 505 \$1;
#X obj 34 481 pack f;
#X obj 59 15 tgl 42 0 empty empty || 5 18 0 28 -258699 -262144 -1 0
1;
#X obj 5 15 tgl 42 0 empty empty ● 5 18 0 28 -258699 -262144 -1 0
1;
#X obj 167 69 bng 42 250 50 0 empty empty >| 5 18 0 28 -262144 -1 -1
;
#X obj 115 15 bng 42 250 50 0 empty empty ◼ 9 16 0 42 -262144 -1
-1;
#X obj 5 69 bng 42 250 50 0 empty empty |< 3 18 0 28 -262144 -1 -1
;
#X obj 351 262 t b b;
#X msg 388 358 0;
#X msg 348 356 0, f 4;
#X floatatom 126 446 5 0 0 0 - - -, f 5;
#X obj 560 310 t b b;
#X obj 179 590 phasor~;
#X obj 332 490 r \$1-samplesize;
#X obj 179 615 *~;
#X obj 179 491 44100;
#X obj 179 544 /;
#X obj 179 446 bng 15 250 50 0 empty empty empty 17 7 0 10 -262144
-1 -1;
#X obj 179 467 t b b;
#X obj 311 523 f \$1;
#X obj 44 633 snapshot~;
#X obj 24 717 /;
#X obj 7 189 hsl 280 20 280 1 0 0 empty empty location 12 10 0 24 -258113
-1 -1 0 1;
#X obj 39 688 r \$1-samplesize;
#X obj 493 404 bng 15 250 50 0 empty empty empty 17 7 0 10 -262144
-1 -1;
#X obj 490 440 pack 0 500;
#X obj 490 538 line;
#X text 843 704 5.292e+07 = 20 min (20 min = 1200 sec * 44100);
#X obj 839 630 soundfiler;
#X floatatom 839 653 9 0 0 0 - - -, f 9;
#X obj 839 674 s \$1-samplesize;
#X obj 924 -19 loadbang;
#X obj 476 171 sel 0 1;
#X obj 437 292 t b b;
#X msg 464 320 0;
#X msg 588 338 0.99;
#X obj 167 15 bng 42 250 50 0 empty empty ᐅ 6 21 0 28 -262144 -1
-1;
#X floatatom 32 455 5 0 0 0 - - -, f 5;
#X msg 97 277 0;
#X msg 307 321 0.05;
#X obj 59 69 tgl 42 0 empty empty << 5 18 0 28 -262144 -1 -1 0 1;
#X obj 115 69 tgl 42 0 empty empty >> 5 18 0 28 -262144 -1 -1 0 1;
#X obj 179 319 sel 0 1;
#X obj 259 262 sel 0 1;
#X msg 178 360 0;
#X msg 268 320 -0.05;
#X msg 818 354 stop;
#X obj 818 303 bng 40 250 50 0 \$0-stopR \$0-stopRr stop -2 -8 0 10
-262144 -1 -1;
#X obj 876 300 bng 40 250 50 0 \$0-record \$0-record_canvas record
-2 -8 0 10 -262144 -1 -1;
#X obj 617 742 writesf~ 2;
#X obj 852 222 tgl 15 0 empty empty rec(stop|rec) 17 7 0 10 -262144
-1 -1 0 1;
#X obj 852 242 sel 0 1;
#X obj 690 254 t b b;
#X obj 638 292 del 500;
#X obj 595 494 t b a;
#X obj 20 334 sel 1;
#X obj 19 303 spigot;
#X obj 53 281 tgl 15 0 empty empty empty 17 7 0 10 -262144 -1 -1 0
1;
#X msg 56 253 0;
#X obj 600 108 sel 0 1;
#X msg 596 135 color 13 0 22;
#X msg 621 164 color 16 0 22;
#X obj 599 18 sel 0 1;
#X msg 599 44 color 13 0 22;
#X msg 635 69 color 16 0 22;
#X obj 220 -48 inlet;
#X obj 222 -29 route 0 1 2 3 4 5 6 7 8 9, f 70;
#X obj 924 61 table tLEFT;
#X obj 180 684 outlet~;
#X obj 75 -48 inlet~;
#X obj 930 90 cnv 15 100 60 empty empty 2019-03-28-11-10-switching_to_mono_removed_tRIGHT
20 12 0 14 -233017 -66577 0;
#X msg 924 2 \; tLEFT resize 1 \; tLEFT resize 5.292e+07 \;;
#X obj 876 349 filename-date;
#X symbolatom 876 405 36 0 0 0 - - -, f 36;
#N canvas 0 54 1440 818 scraps 0;
#X obj 160 77 date, f 18;
#X obj 278 78 time, f 16;
#N canvas 3 56 450 300 2digitdates 0;
#X obj 93 306 outlet;
#X obj 77 171 moses 10;
#X obj 93 268 l2s;
#X obj 50 206 pack f;
#X obj 132 207 pack f;
#X msg 132 235 \$1;
#X msg 50 233 0\$1;
#X obj 77 131 inlet;
#X connect 1 0 3 0;
#X connect 1 1 4 0;
#X connect 2 0 0 0;
#X connect 3 0 6 0;
#X connect 4 0 5 0;
#X connect 5 0 2 0;
#X connect 6 0 2 0;
#X connect 7 0 1 0;
#X restore 217 153 pd 2digitdates;
#N canvas 3 56 450 300 2digitdates 0;
#X obj 93 306 outlet;
#X obj 77 171 moses 10;
#X obj 93 268 l2s;
#X obj 50 206 pack f;
#X obj 132 207 pack f;
#X msg 132 235 \$1;
#X msg 50 233 0\$1;
#X obj 77 131 inlet;
#X connect 1 0 3 0;
#X connect 1 1 4 0;
#X connect 2 0 0 0;
#X connect 3 0 6 0;
#X connect 4 0 5 0;
#X connect 5 0 2 0;
#X connect 6 0 2 0;
#X connect 7 0 1 0;
#X restore 171 101 pd 2digitdates;
#N canvas 3 56 450 300 2digitdates 0;
#X obj 93 306 outlet;
#X obj 77 171 moses 10;
#X obj 93 268 l2s;
#X obj 50 206 pack f;
#X obj 132 207 pack f;
#X msg 132 235 \$1;
#X msg 50 233 0\$1;
#X obj 77 131 inlet;
#X connect 1 0 3 0;
#X connect 1 1 4 0;
#X connect 2 0 0 0;
#X connect 3 0 6 0;
#X connect 4 0 5 0;
#X connect 5 0 2 0;
#X connect 6 0 2 0;
#X connect 7 0 1 0;
#X restore 286 100 pd 2digitdates;
#N canvas 3 56 450 300 2digitdates 0;
#X obj 93 306 outlet;
#X obj 77 171 moses 10;
#X obj 93 268 l2s;
#X obj 50 206 pack f;
#X obj 132 207 pack f;
#X msg 132 235 \$1;
#X msg 50 233 0\$1;
#X obj 77 131 inlet;
#X connect 1 0 3 0;
#X connect 1 1 4 0;
#X connect 2 0 0 0;
#X connect 3 0 6 0;
#X connect 4 0 5 0;
#X connect 5 0 2 0;
#X connect 6 0 2 0;
#X connect 7 0 1 0;
#X restore 305 126 pd 2digitdates;
#N canvas 3 56 450 300 2digitdates 0;
#X obj 93 306 outlet;
#X obj 77 171 moses 10;
#X obj 93 268 l2s;
#X obj 50 206 pack f;
#X obj 132 207 pack f;
#X msg 132 235 \$1;
#X msg 50 233 0\$1;
#X obj 77 131 inlet;
#X connect 1 0 3 0;
#X connect 1 1 4 0;
#X connect 2 0 0 0;
#X connect 3 0 6 0;
#X connect 4 0 5 0;
#X connect 5 0 2 0;
#X connect 6 0 2 0;
#X connect 7 0 1 0;
#X restore 317 151 pd 2digitdates;
#N canvas 3 56 450 300 2digitdates 0;
#X obj 93 306 outlet;
#X obj 77 171 moses 10;
#X obj 93 268 l2s;
#X obj 50 206 pack f;
#X obj 132 207 pack f;
#X msg 132 235 \$1;
#X msg 50 233 0\$1;
#X obj 77 131 inlet;
#X connect 1 0 3 0;
#X connect 1 1 4 0;
#X connect 2 0 0 0;
#X connect 3 0 6 0;
#X connect 4 0 5 0;
#X connect 5 0 2 0;
#X connect 6 0 2 0;
#X connect 7 0 1 0;
#X restore 193 129 pd 2digitdates;
#X obj 48 35 t b b b;
#X obj 75 229 l2s;
#X obj 73 179 pack f s s s s s s;
#X msg 41 117 1;
#X msg 75 202 list ../recordings/recording-\$2_\$3_\$4_\$5_\$6_\$7.wav
;
#X connect 0 0 3 0;
#X connect 0 1 7 0;
#X connect 0 2 2 0;
#X connect 1 0 4 0;
#X connect 1 1 5 0;
#X connect 1 2 6 0;
#X connect 2 0 10 3;
#X connect 3 0 10 1;
#X connect 4 0 10 4;
#X connect 5 0 10 5;
#X connect 6 0 10 6;
#X connect 7 0 10 2;
#X connect 8 0 11 0;
#X connect 8 1 0 0;
#X connect 8 2 1 0;
#X connect 10 0 12 0;
#X connect 11 0 10 0;
#X connect 12 0 9 0;
#X restore 936 165 pd scraps;
#X msg 490 474 \$1 \$2;
#X obj 180 651 tabread4~ tLEFT;
#X msg 989 648 \; tLEFT resize \$1 \;;
#X msg 592 461 open -bytes 4 \$1.wav \, start;
#X floatatom 416 611 12 0 0 0 - - -, f 12;
#X obj 942 771 print;
#X msg 876 443 set \$1;
#X symbolatom 720 516 10 0 0 0 - - -, f 10;
#X msg 841 566 read \$1.wav tLEFT;
#X msg 1014 540 read 2019_03_28_11_45_22-recording.wav tLEFT;
#X connect 1 0 15 0;
#X connect 2 0 43 0;
#X connect 3 0 42 0;
#X connect 4 0 17 1;
#X connect 5 0 4 0;
#X connect 6 0 5 0;
#X connect 7 0 37 0;
#X connect 7 0 67 0;
#X connect 8 0 55 0;
#X connect 8 0 64 0;
#X connect 9 0 16 0;
#X connect 10 0 12 0;
#X connect 10 0 63 0;
#X connect 11 0 38 0;
#X connect 12 0 14 0;
#X connect 12 1 13 0;
#X connect 13 0 17 0;
#X connect 14 0 17 1;
#X connect 15 0 17 0;
#X connect 16 0 29 0;
#X connect 16 1 40 0;
#X connect 17 0 19 0;
#X connect 18 0 19 1;
#X connect 18 0 24 1;
#X connect 18 0 84 0;
#X connect 19 0 25 0;
#X connect 19 0 81 0;
#X connect 20 0 21 0;
#X connect 21 0 17 0;
#X connect 22 0 23 0;
#X connect 23 0 20 0;
#X connect 23 1 24 0;
#X connect 24 0 21 1;
#X connect 25 0 26 0;
#X connect 26 0 27 0;
#X connect 27 0 61 0;
#X connect 28 0 26 1;
#X connect 29 0 30 0;
#X connect 30 0 80 0;
#X connect 31 0 17 0;
#X connect 33 0 34 0;
#X connect 33 0 82 0;
#X connect 34 0 35 0;
#X connect 36 0 76 0;
#X connect 37 0 22 0;
#X connect 37 1 29 0;
#X connect 38 0 29 0;
#X connect 38 1 39 0;
#X connect 39 0 3 0;
#X connect 40 0 3 0;
#X connect 41 0 57 0;
#X connect 42 0 6 0;
#X connect 43 0 1 0;
#X connect 44 0 1 0;
#X connect 45 0 47 0;
#X connect 46 0 48 0;
#X connect 47 0 49 0;
#X connect 47 1 50 0;
#X connect 48 0 49 0;
#X connect 48 0 22 0;
#X connect 48 1 44 0;
#X connect 49 0 1 0;
#X connect 49 0 22 0;
#X connect 50 0 1 0;
#X connect 51 0 54 0;
#X connect 52 0 51 0;
#X connect 53 0 77 0;
#X connect 55 0 56 0;
#X connect 56 0 52 0;
#X connect 56 1 53 0;
#X connect 57 0 58 0;
#X connect 57 1 87 0;
#X connect 58 0 22 0;
#X connect 59 1 54 0;
#X connect 60 0 41 0;
#X connect 61 0 60 0;
#X connect 62 0 61 1;
#X connect 63 0 62 0;
#X connect 64 0 65 0;
#X connect 64 1 66 0;
#X connect 65 0 8 0;
#X connect 66 0 8 0;
#X connect 67 0 68 0;
#X connect 67 1 69 0;
#X connect 68 0 7 0;
#X connect 69 0 7 0;
#X connect 70 0 71 0;
#X connect 71 0 10 0;
#X connect 71 1 8 0;
#X connect 71 2 41 0;
#X connect 71 3 7 0;
#X connect 71 4 11 0;
#X connect 71 5 45 0;
#X connect 71 6 46 0;
#X connect 71 7 9 0;
#X connect 71 8 1 0;
#X connect 71 9 3 0;
#X connect 74 0 54 0;
#X connect 74 0 54 1;
#X connect 77 0 78 0;
#X connect 78 0 83 0;
#X connect 78 0 86 0;
#X connect 80 0 31 0;
#X connect 81 0 73 0;
#X connect 83 0 59 0;
#X connect 86 0 87 0;
#X connect 87 0 88 0;
#X connect 88 0 33 0;
#X connect 89 0 33 0;
#X coords 0 -1 1 1 302 220 2 0 0;
