#N canvas 3 54 1351 708 10;
#X obj 312 354 readsf~ 2;
#X msg 108 281 \$1 20;
#X obj 108 303 line~;
#X obj 91 351 *~;
#X obj 331 255 tgl 15 0 empty empty empty 17 7 0 10 -262144 -1 -1 1
1;
#X obj 107 136 sel 0 1;
#X floatatom 107 260 5 0 0 0 - - -, f 5;
#X msg 107 175 0;
#X floatatom 332 235 5 0 0 0 - - -, f 5;
#X obj 212 150 bng 15 250 50 0 empty empty empty 17 7 0 10 -262144
-1 -1;
#X obj 107 112 tgl 15 0 empty empty play(loop) 17 7 0 10 -262144 -1
-1 1 1;
#X obj 92 380 outlet~;
#X obj 107 62 inlet;
#X obj 281 107 bng 15 250 50 0 empty empty empty 17 7 0 10 -262144
-1 -1;
#X obj 281 128 openpanel;
#X symbolatom 281 150 10 0 0 0 - - -, f 10;
#X msg 356 202 open \$1;
#X obj 284 171 t b b s;
#X msg 319 203 1;
#X msg 284 204 1;
#X obj 861 353 t f f b;
#X msg 778 332 1;
#X msg 904 386 open PachabelsCanon-short.wav;
#X text 773 303 orig \; scraps;
#X connect 0 0 3 0;
#X connect 0 1 3 0;
#X connect 0 2 9 0;
#X connect 1 0 2 0;
#X connect 2 0 3 1;
#X connect 3 0 11 0;
#X connect 4 0 0 0;
#X connect 5 0 7 0;
#X connect 5 1 13 0;
#X connect 6 0 1 0;
#X connect 7 0 6 0;
#X connect 7 0 8 0;
#X connect 8 0 4 0;
#X connect 9 0 15 0;
#X connect 10 0 5 0;
#X connect 12 0 10 0;
#X connect 13 0 14 0;
#X connect 14 0 15 0;
#X connect 15 0 17 0;
#X connect 16 0 0 0;
#X connect 17 0 19 0;
#X connect 17 1 18 0;
#X connect 17 2 16 0;
#X connect 18 0 6 0;
#X connect 19 0 8 0;
#X connect 20 2 22 0;
#X connect 21 0 20 0;
#X coords 0 -1 1 1 85 60 2 100 100;
