#N canvas 0 54 1366 686 10;
#X obj 21 100 cnv 15 178 54 empty empty empty 178 54 0 14 -233017 -66577
0;
#X obj 25 102 tof/menubutton 132 22 \$0s \$0r 1 #000000 #ffffff #ff0000
#000000 0 \, 2019_04_04_11_56_21-effwritetest.txt \, 2019_04_04_12_46_28-eff2.txt
\, 2019_04_04_12_47_37-eff3.txt \, 2019_04_04_12_49_36-EFF4.txt \,
2019_04_04_12_50_47-effect5.txt \, 2019_04_04_21_08_11-symbol.txt \,
2019_04_04_23_11_11-symbol.txt \, 2019_04_04_23_33_55-symbol.txt \,
2019_04_04_23_56_28-1strndtriptest.txt \, 2019_04_12_19_21_02-3delfbs.txt
\, 2019_04_14_11_01_03-.txt \, 2019_04_14_11_01_42-presettest20190414.txt
;
#X obj 183 211 unpack f s;
#X symbolatom 241 258 42 0 0 0 - - -, f 42;
#X obj 158 102 bng 28 250 50 0 empty empty save 2 7 0 10 -262144 -1
-1;
#X obj 352 13 r lo;
#X obj 385 13 r md;
#X obj 423 13 r hi;
#X obj 464 13 r pre;
#X obj 488 79 r th;
#X obj 527 79 r lm;
#X obj 559 79 r rt;
#X obj 592 79 r at;
#X obj 630 79 r re;
#X obj 443 37 r br;
#X obj 464 37 r rs;
#X obj 665 76 r mst;
#X msg 285 324 rewind;
#X obj 244 359 textfile;
#X msg 246 324 bang;
#X obj 84 301 shell;
#X msg 315 79 1;
#X msg 86 270 ls ~/presets;
#X obj 968 159 bng 15 250 50 0 empty empty empty 17 7 0 10 -262144
-1 -1;
#X symbolatom 22 136 28 0 0 0 - - -, f 28;
#X obj 723 40 r drywet1;
#X obj 683 -35 r s1p1;
#X obj 715 -13 r s1p2;
#X obj 739 8 r s1p3;
#X obj 854 55 r drywet2;
#X obj 825 -25 r s2p1;
#X obj 838 0 r s2p2;
#X obj 858 25 r s2p3;
#X obj 986 57 r drywet3;
#X obj 927 -29 r s3p1;
#X obj 940 -4 r s3p2;
#X obj 964 24 r s3p3;
#N canvas 0 54 1440 818 preprefix 0;
#X obj 56 141 date, f 19;
#X msg 56 112 bang;
#X floatatom 109 176 0 0 0 0 - - -;
#X floatatom 82 177 0 0 0 0 - - -;
#X floatatom 42 179 0 0 0 0 - - -;
#X msg 200 119 bang;
#X floatatom 228 178 0 0 0 0 - - -;
#X floatatom 189 178 0 0 0 0 - - -;
#X floatatom 157 178 0 0 0 0 - - -;
#X obj 198 140 time;
#X obj 52 56 bng 15 250 50 0 empty empty empty 17 7 0 10 -262144 -1
-1;
#X obj 54 82 t b b;
#X symbolatom 44 296 36 0 0 0 - - -, f 36;
#X obj 140 212 2digitdates;
#X obj 71 212 2digitdates;
#X obj 367 212 2digitdates;
#X obj 215 212 2digitdates;
#X obj 289 212 2digitdates;
#X obj 42 244 pack f s s s s s;
#X obj 49 21 inlet;
#X obj 45 348 outlet;
#X msg 46 274 symbol \$1_\$2_\$3_\$4_\$5_\$6;
#X connect 0 0 4 0;
#X connect 0 1 3 0;
#X connect 0 2 2 0;
#X connect 1 0 0 0;
#X connect 2 0 13 0;
#X connect 3 0 14 0;
#X connect 4 0 18 0;
#X connect 5 0 9 0;
#X connect 6 0 15 0;
#X connect 7 0 17 0;
#X connect 8 0 16 0;
#X connect 9 0 8 0;
#X connect 9 1 7 0;
#X connect 9 2 6 0;
#X connect 10 0 11 0;
#X connect 11 0 1 0;
#X connect 11 1 5 0;
#X connect 12 0 20 0;
#X connect 13 0 18 2;
#X connect 14 0 18 1;
#X connect 15 0 18 5;
#X connect 16 0 18 3;
#X connect 17 0 18 4;
#X connect 18 0 21 0;
#X connect 19 0 10 0;
#X connect 21 0 12 0;
#X restore 965 185 pd preprefix;
#X msg 11 328 clear;
#X obj 84 438 list prepend add;
#X obj 84 479 list trim;
#X obj 89 214 bng 15 250 50 0 empty empty empty 17 7 0 10 -262144 -1
-1;
#X msg 334 322 read presets/\$1;
#X obj 407 413 bng 15 250 50 0 empty empty end 0 -6 0 8 -262144 -1
-1;
#X obj 243 382 ../../ext/list-abs/list-drip;
#X obj 320 437 f, f 4;
#X obj 370 439 + 1;
#X obj 245 620 send;
#X obj 244 285 t b b s b;
#X msg 441 322 0;
#X obj 242 413 t f b;
#X msg 438 586 symbol d\$1;
#X msg 320 572 symbol a\$1;
#X obj 793 331 textfile;
#X msg 966 249 write presets/\$1-\$2.txt;
#X obj 789 254 list prepend add;
#X obj 791 289 list trim;
#X msg 909 249 clear;
#X obj 968 219 pack s s;
#X obj 90 -7 loadbang;
#X obj 551 555 * -1;
#X msg 551 577 symbol a\$1;
#X obj 281 -35 t b b b b;
#X obj 752 584 s netpremenu;
#X obj 756 401 list prepend add2, f 23;
#X obj 572 477 bng 15 250 50 0 empty empty empty 17 7 0 10 -262144
-1 -1;
#X obj 25 11 r a-4;
#X floatatom 25 33 5 0 0 0 - - -, f 5;
#X obj 755 473 t a;
#X msg 713 366 bang;
#X obj 139 672 s tglMenu;
#X obj 139 623 tgl 15 0 empty empty empty 17 7 0 10 -262144 -1 -1 0
1;
#X obj 85 239 t b b b b;
#X msg 193 583 0;
#X msg 138 547 1;
#X obj 562 403 bng 15 250 50 0 empty empty empty 17 7 0 10 -262144
-1 -1;
#X obj 751 509 list prepend /a-4;
#X obj 571 456 delay 4000 1 msec;
#X obj 161 -17 r d12;
#X obj 158 20 r netprename;
#X obj 159 44 t b s;
#X obj 1005 -9 r fadetime;
#X msg 1089 567 symbol d\$1;
#X msg 971 553 symbol a\$1;
#X obj 1202 536 * -1;
#X msg 1202 558 symbol a\$1;
#X obj 971 453 moses 25, f 21;
#X obj 1095 521 - 24;
#X obj 1105 491 moses 33;
#X obj 1201 506 - 32;
#X obj 320 472 moses 26, f 21;
#X obj 454 510 moses 34;
#X obj 550 525 - 33;
#X obj 444 540 - 25;
#X obj 315 103 pack f f f f f f f f f f f f f f f f f f f f f f f f
f f f f f f f f f f f f f, f 165;
#X msg 592 159 \$2 \$3 \$4 \$5 \$6 \$7 \$8 \$9 \$10 \$11 \$12 \$13
\$14 \$15 \$16 \$17 \$18 \$19 \$20 \$21 \$22 \$23 \$24 \$25 \$26 \$27
\$28 \$29 \$30 \$31 \$32 \$33 \$34 \$35 \$36 \$37;
#X obj 1144 32 r revoffon;
#X obj 1144 6 r cleandirty;
#X obj 1347 4 r seleff1;
#X obj 1223 2 r ard-slot1-by;
#X obj 1073 0 r sus1;
#X obj 1429 1 r seleff2;
#X obj 1228 32 r ard-slot2-by;
#X obj 1078 24 r sus2;
#X obj 1519 8 r seleff3;
#X obj 1219 61 r ard-slot3-by;
#X obj 1079 53 r sus3;
#X floatatom 1347 52 5 0 0 0 - - -, f 5;
#X obj 1347 28 unpack f s;
#X floatatom 1519 56 5 0 0 0 - - -, f 5;
#X obj 1519 32 unpack f s;
#X floatatom 1429 49 5 0 0 0 - - -, f 5;
#X obj 1429 25 unpack f s;
#X connect 1 0 2 0;
#X connect 2 1 3 0;
#X connect 3 0 48 0;
#X connect 4 0 62 0;
#X connect 5 0 94 1;
#X connect 6 0 94 2;
#X connect 7 0 94 3;
#X connect 8 0 94 4;
#X connect 9 0 94 7;
#X connect 10 0 94 8;
#X connect 11 0 94 9;
#X connect 12 0 94 10;
#X connect 13 0 94 11;
#X connect 14 0 94 5;
#X connect 15 0 94 6;
#X connect 16 0 94 12;
#X connect 17 0 18 0;
#X connect 18 0 44 0;
#X connect 19 0 18 0;
#X connect 20 0 39 0;
#X connect 20 0 64 0;
#X connect 20 1 75 0;
#X connect 21 0 94 0;
#X connect 22 0 20 0;
#X connect 23 0 37 0;
#X connect 24 0 58 1;
#X connect 25 0 94 16;
#X connect 26 0 94 13;
#X connect 27 0 94 14;
#X connect 28 0 94 15;
#X connect 29 0 94 20;
#X connect 30 0 94 17;
#X connect 31 0 94 18;
#X connect 32 0 94 19;
#X connect 33 0 94 24;
#X connect 34 0 94 21;
#X connect 35 0 94 22;
#X connect 36 0 94 23;
#X connect 37 0 58 0;
#X connect 38 0 1 0;
#X connect 39 0 40 0;
#X connect 40 0 1 0;
#X connect 41 0 72 0;
#X connect 42 0 18 0;
#X connect 44 0 50 0;
#X connect 44 1 43 0;
#X connect 45 0 46 0;
#X connect 45 0 90 0;
#X connect 46 0 45 1;
#X connect 48 0 19 0;
#X connect 48 1 17 0;
#X connect 48 2 42 0;
#X connect 48 3 49 0;
#X connect 49 0 45 0;
#X connect 50 0 47 0;
#X connect 50 1 45 0;
#X connect 51 0 47 1;
#X connect 52 0 47 1;
#X connect 54 0 53 0;
#X connect 55 0 56 0;
#X connect 56 0 53 0;
#X connect 57 0 53 0;
#X connect 58 0 54 0;
#X connect 59 0 41 0;
#X connect 60 0 61 0;
#X connect 61 0 47 1;
#X connect 62 0 41 0;
#X connect 62 1 23 0;
#X connect 62 2 21 0;
#X connect 62 3 57 0;
#X connect 64 0 68 0;
#X connect 65 0 73 0;
#X connect 66 0 67 0;
#X connect 67 0 1 0;
#X connect 68 0 64 1;
#X connect 68 0 76 0;
#X connect 69 0 68 0;
#X connect 71 0 70 0;
#X connect 72 0 22 0;
#X connect 72 1 38 0;
#X connect 72 2 69 0;
#X connect 72 3 74 0;
#X connect 73 0 71 0;
#X connect 74 0 71 0;
#X connect 75 0 77 0;
#X connect 76 0 63 0;
#X connect 77 0 65 0;
#X connect 79 0 80 0;
#X connect 80 0 4 0;
#X connect 80 1 24 0;
#X connect 81 0 94 25;
#X connect 84 0 85 0;
#X connect 86 0 83 0;
#X connect 86 1 88 0;
#X connect 87 0 82 0;
#X connect 88 0 87 0;
#X connect 88 1 89 0;
#X connect 89 0 84 0;
#X connect 90 0 52 0;
#X connect 90 1 91 0;
#X connect 91 0 93 0;
#X connect 91 1 92 0;
#X connect 92 0 60 0;
#X connect 93 0 51 0;
#X connect 94 0 95 0;
#X connect 95 0 55 0;
#X connect 96 0 94 30;
#X connect 97 0 94 29;
#X connect 98 0 108 0;
#X connect 99 0 94 31;
#X connect 100 0 94 26;
#X connect 101 0 112 0;
#X connect 102 0 94 32;
#X connect 103 0 94 27;
#X connect 104 0 110 0;
#X connect 105 0 94 33;
#X connect 106 0 94 28;
#X connect 107 0 94 34;
#X connect 108 0 107 0;
#X connect 109 0 94 36;
#X connect 110 0 109 0;
#X connect 111 0 94 35;
#X connect 112 0 111 0;
#X coords 0 -1 1 1 180 56 2 20 100;
