#N canvas 12 54 1351 708 10;
#X obj 44 302 oscparse;
#X obj 44 268 netreceive -u -b;
#X msg 56 241 listen 0;
#X text 41 189 packets from network;
#X obj 40 127 tgl 15 0 empty empty empty 17 7 0 10 -262144 -1 -1 1
1;
#X obj 43 155 sel 0 1;
#X obj 44 327 list trim;
#X msg 44 213 listen 54321;
#X obj 51 501 send;
#X obj 44 374 unpack s f;
#X obj 40 93 loadbang;
#X symbolatom 143 458 10 0 0 0 - - -, f 10;
#X msg 83 436 set \$1;
#X floatatom 50 466 5 0 0 0 - - -, f 5;
#X obj 49 408 t b s;
#X obj 271 400 route presetname;
#X obj 271 448 l2s;
#X obj 271 486 s netprename;
#X connect 0 0 6 0;
#X connect 1 0 0 0;
#X connect 2 0 1 0;
#X connect 4 0 5 0;
#X connect 5 0 2 0;
#X connect 5 1 7 0;
#X connect 6 0 9 0;
#X connect 6 0 15 0;
#X connect 7 0 1 0;
#X connect 9 0 14 0;
#X connect 9 1 12 0;
#X connect 11 0 8 1;
#X connect 12 0 13 0;
#X connect 13 0 8 0;
#X connect 14 0 13 0;
#X connect 14 1 11 0;
#X connect 15 0 16 0;
#X connect 16 0 17 0;
