#N canvas 12 54 1351 708 10;
#X obj 560 101 r tunerMIDI;
#X text 181 229 .67=the android;
#X msg 18 229 connect 192.168.1.67 54322;
#X msg 17 258 connect 192.168.1.88 54322;
#X text 185 262 0.88 ians;
#X obj 406 533 netsend -u -b;
#N canvas 291 353 581 323 oscformat-mobmuplat 0;
#X obj 66 55 list split 1;
#X obj 107 104 list;
#X obj 65 83 list prepend set;
#X obj 64 131 list trim;
#X obj 65 104 t b l;
#X obj 65 27 inlet;
#X obj 72 183 oscformat;
#X obj 71 276 outlet;
#X text 183 82 extract the address \, set it on oscformat \, then send
values;
#X obj 72 206 list prepend send;
#X obj 72 232 list trim;
#X connect 0 0 2 0;
#X connect 0 1 1 1;
#X connect 1 0 6 0;
#X connect 2 0 4 0;
#X connect 3 0 6 0;
#X connect 4 0 1 0;
#X connect 4 1 3 0;
#X connect 5 0 0 0;
#X connect 6 0 9 0;
#X connect 9 0 10 0;
#X connect 10 0 7 0;
#X restore 409 483 pd oscformat-mobmuplat;
#X msg 161 170 disconnect;
#X obj 161 81 tgl 15 0 empty empty empty 17 7 0 10 -262144 -1 -1 0
1;
#X obj 161 114 sel 0 1;
#X floatatom 407 571 5 0 0 0 - - -, f 5;
#X obj 406 99 r tunerNote;
#X symbolatom 409 126 10 0 0 0 - - -, f 10;
#X obj 838 244 cnv 15 100 60 empty empty these_lists_may_be_wrong 20
12 0 14 -233017 -66577 0;
#X obj 242 27 r meterR;
#X obj 540 298 spigot;
#X obj 410 292 spigot;
#X obj 165 27 r tglTuner;
#X obj 647 295 spigot;
#X text 154 5 these must be mutual exclusive;
#X obj 662 101 r meterTunerVal;
#X obj 666 154 speedlimit;
#X obj 563 156 speedlimit;
#X obj 781 101 r netpremenu;
#X msg 17 288 connect 192.168.1.77 54322;
#X text 180 288 77=mylaptop;
#X obj 309 27 r tglMenu;
#X text 193 317 .94-my ipad;
#X msg 17 319 connect 192.168.1.94 54322;
#X msg 184 142 connect 192.168.1.67 54322;
#X floatatom 701 461 5 0 0 0 - - -, f 5;
#X symbolatom 584 556 10 0 0 0 - - -, f 10;
#X obj 426 206 pack s;
#X msg 427 164 symbol \$1;
#X msg 409 238 list /tunerNote \$1;
#X obj 501 630 print;
#X msg 548 240 list /tunerMIDI :\$1;
#X msg 692 254 list /meterTuner \$1;
#X connect 0 0 22 0;
#X connect 5 0 10 0;
#X connect 6 0 5 0;
#X connect 7 0 5 0;
#X connect 9 0 7 0;
#X connect 9 1 29 0;
#X connect 11 0 12 0;
#X connect 12 0 34 0;
#X connect 14 0 8 0;
#X connect 15 0 6 0;
#X connect 16 0 6 0;
#X connect 17 0 15 1;
#X connect 17 0 16 1;
#X connect 17 0 8 0;
#X connect 17 0 18 1;
#X connect 18 0 6 0;
#X connect 20 0 21 0;
#X connect 21 0 37 0;
#X connect 22 0 36 0;
#X connect 23 0 6 0;
#X connect 26 0 8 0;
#X connect 29 0 5 0;
#X connect 33 0 32 0;
#X connect 34 0 16 0;
#X connect 36 0 15 0;
#X connect 37 0 18 0;
