#N canvas 3 54 1351 686 10;
#X text 193 130 click to open and edit text:;
#X msg 119 100 clear;
#X obj 167 155 text define -k rgbcolors;
#A set 1 0 0 \; 1 0.501961 0 \; 1 0.74902 0 \; 1 1 0 \; 0.74902 1 0
\; 0.501961 1 0 \; 0 1 0 \; 0 1 0.501961 \; 0 1 0.74902 \; 0 1 1 \;
0 0.74902 1 \; 0 0.501961 1 \; 0 0 1 \; 0.25098 0 1 \; 0.501961 0 1
\; 0.74902 0 1 \; 1 0 1 \; 1 0 0.74902 \; 1 0 0.501961 \; 1 0 0.25098
\; 1 0 0;
#X floatatom 92 221 5 0 5 0 - - -, f 5;
#X obj 93 266 text get rgbcolors;
#X floatatom 407 162 5 0 5 0 - - -, f 5;
#X obj 410 224 text get rgbcolors;
#X floatatom 640 163 5 0 5 0 - - -, f 5;
#X obj 645 223 text get rgbcolors;
#X obj 92 240 t f b;
#X obj 406 180 t f b;
#X obj 640 182 t f b;
#X obj 95 194 r seleff1;
#X obj 403 126 r seleff2;
#X obj 632 126 r seleff3;
#X obj 84 596 s SLOT1EFFNAME;
#X obj 576 587 s SLOT3EFFNAME;
#X obj 355 594 s SLOT2EFFNAME;
#X msg 88 471 bang;
#N canvas 14 207 606 448 RGB_____________ 0;
#X obj 97 56 inlet;
#X obj 262 53 inlet;
#X obj 339 55 inlet;
#X obj 405 56 inlet;
#X obj 97 270 bang;
#X msg 77 295 0;
#X msg 104 295 1;
#X obj 146 268 bang;
#X msg 132 295 0;
#X msg 160 295 1;
#X obj 265 313 spigot;
#X obj 312 313 spigot;
#X obj 249 385 outlet;
#X text 93 33 select;
#X text 267 28 red;
#X text 337 30 green;
#X text 409 30 blue;
#X obj 405 102 t b f;
#X obj 339 160 +;
#X obj 339 185 t b f;
#X obj 339 216 +;
#X obj 296 385 outlet;
#X obj 28 180 loadbang;
#X obj 296 361 f;
#X obj 249 361 f;
#X obj 262 79 * -65536;
#X obj 339 80 * -256;
#X obj 405 80 * -1;
#X obj 339 247 - 1;
#X obj 97 135 route back label bang;
#X obj 235 168 t b b b;
#X connect 0 0 29 0;
#X connect 1 0 25 0;
#X connect 2 0 26 0;
#X connect 3 0 27 0;
#X connect 4 0 5 0;
#X connect 4 0 6 0;
#X connect 5 0 11 1;
#X connect 6 0 10 1;
#X connect 7 0 8 0;
#X connect 7 0 9 0;
#X connect 8 0 10 1;
#X connect 9 0 11 1;
#X connect 10 0 24 1;
#X connect 11 0 23 1;
#X connect 17 0 18 0;
#X connect 17 1 18 1;
#X connect 18 0 19 0;
#X connect 19 0 20 0;
#X connect 19 1 20 1;
#X connect 20 0 28 0;
#X connect 22 0 6 0;
#X connect 23 0 21 0;
#X connect 24 0 12 0;
#X connect 25 0 20 0;
#X connect 26 0 18 0;
#X connect 27 0 17 0;
#X connect 28 0 11 0;
#X connect 28 0 10 0;
#X connect 29 0 4 0;
#X connect 29 1 7 0;
#X connect 29 2 30 0;
#X connect 30 0 24 0;
#X connect 30 1 23 0;
#X connect 30 2 28 0;
#X restore 87 506 pd RGB_____________;
#X floatatom 133 475 3 0 255 0 - - -, f 3;
#X floatatom 175 476 3 0 255 0 - - -, f 3;
#X floatatom 218 477 3 0 255 0 - - -, f 3;
#X text 132 458 red;
#X text 168 457 green;
#X text 216 457 blue;
#X obj 86 539 pack 0 0 0;
#X obj 120 310 unpack f f f;
#X obj 122 370 * 255;
#X msg 85 562 color \$1 \$2 \$3;
#X obj 93 288 t b a;
#X obj 122 392 + 0.5;
#X obj 122 414 int;
#X obj 167 371 * 255;
#X obj 167 393 + 0.5;
#X obj 167 415 int;
#X obj 216 368 * 255;
#X obj 216 390 + 0.5;
#X obj 216 412 int;
#X obj 410 57 hradio 15 1 0 8 empty empty empty 0 -8 0 10 -262144 -1
-1 0;
#X msg 168 103 read rgb-colors.txt;
#X msg 400 449 bang;
#N canvas 14 207 606 448 RGB_____________ 0;
#X obj 97 56 inlet;
#X obj 262 53 inlet;
#X obj 339 55 inlet;
#X obj 405 56 inlet;
#X obj 97 270 bang;
#X msg 77 295 0;
#X msg 104 295 1;
#X obj 146 268 bang;
#X msg 132 295 0;
#X msg 160 295 1;
#X obj 265 313 spigot;
#X obj 312 313 spigot;
#X obj 249 385 outlet;
#X text 93 33 select;
#X text 267 28 red;
#X text 337 30 green;
#X text 409 30 blue;
#X obj 405 102 t b f;
#X obj 339 160 +;
#X obj 339 185 t b f;
#X obj 339 216 +;
#X obj 296 385 outlet;
#X obj 28 180 loadbang;
#X obj 296 361 f;
#X obj 249 361 f;
#X obj 262 79 * -65536;
#X obj 339 80 * -256;
#X obj 405 80 * -1;
#X obj 339 247 - 1;
#X obj 97 135 route back label bang;
#X obj 235 168 t b b b;
#X connect 0 0 29 0;
#X connect 1 0 25 0;
#X connect 2 0 26 0;
#X connect 3 0 27 0;
#X connect 4 0 5 0;
#X connect 4 0 6 0;
#X connect 5 0 11 1;
#X connect 6 0 10 1;
#X connect 7 0 8 0;
#X connect 7 0 9 0;
#X connect 8 0 10 1;
#X connect 9 0 11 1;
#X connect 10 0 24 1;
#X connect 11 0 23 1;
#X connect 17 0 18 0;
#X connect 17 1 18 1;
#X connect 18 0 19 0;
#X connect 19 0 20 0;
#X connect 19 1 20 1;
#X connect 20 0 28 0;
#X connect 22 0 6 0;
#X connect 23 0 21 0;
#X connect 24 0 12 0;
#X connect 25 0 20 0;
#X connect 26 0 18 0;
#X connect 27 0 17 0;
#X connect 28 0 11 0;
#X connect 28 0 10 0;
#X connect 29 0 4 0;
#X connect 29 1 7 0;
#X connect 29 2 30 0;
#X connect 30 0 24 0;
#X connect 30 1 23 0;
#X connect 30 2 28 0;
#X restore 399 484 pd RGB_____________;
#X floatatom 445 453 3 0 255 0 - - -, f 3;
#X floatatom 487 454 3 0 255 0 - - -, f 3;
#X floatatom 530 455 3 0 255 0 - - -, f 3;
#X text 444 436 red;
#X text 480 435 green;
#X text 528 435 blue;
#X obj 398 517 pack 0 0 0;
#X obj 432 288 unpack f f f;
#X obj 434 348 * 255;
#X msg 397 540 color \$1 \$2 \$3;
#X obj 405 266 t b a;
#X obj 434 370 + 0.5;
#X obj 434 392 int;
#X obj 479 349 * 255;
#X obj 479 371 + 0.5;
#X obj 479 393 int;
#X obj 528 346 * 255;
#X obj 528 368 + 0.5;
#X obj 528 390 int;
#X msg 633 447 bang;
#N canvas 14 207 606 448 RGB_____________ 0;
#X obj 97 56 inlet;
#X obj 262 53 inlet;
#X obj 339 55 inlet;
#X obj 405 56 inlet;
#X obj 97 270 bang;
#X msg 77 295 0;
#X msg 104 295 1;
#X obj 146 268 bang;
#X msg 132 295 0;
#X msg 160 295 1;
#X obj 265 313 spigot;
#X obj 312 313 spigot;
#X obj 249 385 outlet;
#X text 93 33 select;
#X text 267 28 red;
#X text 337 30 green;
#X text 409 30 blue;
#X obj 405 102 t b f;
#X obj 339 160 +;
#X obj 339 185 t b f;
#X obj 339 216 +;
#X obj 296 385 outlet;
#X obj 28 180 loadbang;
#X obj 296 361 f;
#X obj 249 361 f;
#X obj 262 79 * -65536;
#X obj 339 80 * -256;
#X obj 405 80 * -1;
#X obj 339 247 - 1;
#X obj 97 135 route back label bang;
#X obj 235 168 t b b b;
#X connect 0 0 29 0;
#X connect 1 0 25 0;
#X connect 2 0 26 0;
#X connect 3 0 27 0;
#X connect 4 0 5 0;
#X connect 4 0 6 0;
#X connect 5 0 11 1;
#X connect 6 0 10 1;
#X connect 7 0 8 0;
#X connect 7 0 9 0;
#X connect 8 0 10 1;
#X connect 9 0 11 1;
#X connect 10 0 24 1;
#X connect 11 0 23 1;
#X connect 17 0 18 0;
#X connect 17 1 18 1;
#X connect 18 0 19 0;
#X connect 19 0 20 0;
#X connect 19 1 20 1;
#X connect 20 0 28 0;
#X connect 22 0 6 0;
#X connect 23 0 21 0;
#X connect 24 0 12 0;
#X connect 25 0 20 0;
#X connect 26 0 18 0;
#X connect 27 0 17 0;
#X connect 28 0 11 0;
#X connect 28 0 10 0;
#X connect 29 0 4 0;
#X connect 29 1 7 0;
#X connect 29 2 30 0;
#X connect 30 0 24 0;
#X connect 30 1 23 0;
#X connect 30 2 28 0;
#X restore 632 482 pd RGB_____________;
#X floatatom 678 451 3 0 255 0 - - -, f 3;
#X floatatom 720 452 3 0 255 0 - - -, f 3;
#X floatatom 763 453 3 0 255 0 - - -, f 3;
#X text 677 434 red;
#X text 713 433 green;
#X text 761 433 blue;
#X obj 631 515 pack 0 0 0;
#X obj 665 286 unpack f f f;
#X obj 667 346 * 255;
#X msg 630 538 color \$1 \$2 \$3;
#X obj 638 264 t b a;
#X obj 667 368 + 0.5;
#X obj 667 390 int;
#X obj 712 347 * 255;
#X obj 712 369 + 0.5;
#X obj 712 391 int;
#X obj 761 344 * 255;
#X obj 761 366 + 0.5;
#X obj 761 388 int;
#X connect 1 0 2 0;
#X connect 3 0 9 0;
#X connect 4 0 30 0;
#X connect 5 0 10 0;
#X connect 6 0 53 0;
#X connect 7 0 11 0;
#X connect 8 0 74 0;
#X connect 9 0 4 0;
#X connect 10 0 6 0;
#X connect 11 0 8 0;
#X connect 12 0 3 0;
#X connect 13 0 5 0;
#X connect 14 0 7 0;
#X connect 18 0 19 0;
#X connect 19 0 26 0;
#X connect 19 1 26 2;
#X connect 20 0 19 1;
#X connect 21 0 19 2;
#X connect 22 0 19 3;
#X connect 26 0 29 0;
#X connect 27 0 28 0;
#X connect 27 1 33 0;
#X connect 27 2 36 0;
#X connect 28 0 31 0;
#X connect 29 0 15 0;
#X connect 30 0 18 0;
#X connect 30 1 27 0;
#X connect 31 0 32 0;
#X connect 32 0 20 0;
#X connect 33 0 34 0;
#X connect 34 0 35 0;
#X connect 35 0 21 0;
#X connect 36 0 37 0;
#X connect 37 0 38 0;
#X connect 38 0 22 0;
#X connect 39 0 3 0;
#X connect 40 0 2 0;
#X connect 41 0 42 0;
#X connect 42 0 49 0;
#X connect 42 1 49 2;
#X connect 43 0 42 1;
#X connect 44 0 42 2;
#X connect 45 0 42 3;
#X connect 49 0 52 0;
#X connect 50 0 51 0;
#X connect 50 1 56 0;
#X connect 50 2 59 0;
#X connect 51 0 54 0;
#X connect 52 0 17 0;
#X connect 53 0 41 0;
#X connect 53 1 50 0;
#X connect 54 0 55 0;
#X connect 55 0 43 0;
#X connect 56 0 57 0;
#X connect 57 0 58 0;
#X connect 58 0 44 0;
#X connect 59 0 60 0;
#X connect 60 0 61 0;
#X connect 61 0 45 0;
#X connect 62 0 63 0;
#X connect 63 0 70 0;
#X connect 63 1 70 2;
#X connect 64 0 63 1;
#X connect 65 0 63 2;
#X connect 66 0 63 3;
#X connect 70 0 73 0;
#X connect 71 0 72 0;
#X connect 71 1 77 0;
#X connect 71 2 80 0;
#X connect 72 0 75 0;
#X connect 73 0 16 0;
#X connect 74 0 62 0;
#X connect 74 1 71 0;
#X connect 75 0 76 0;
#X connect 76 0 64 0;
#X connect 77 0 78 0;
#X connect 78 0 79 0;
#X connect 79 0 65 0;
#X connect 80 0 81 0;
#X connect 81 0 82 0;
#X connect 82 0 66 0;
