#N canvas 1004 337 1425 818 10;
#X text 193 130 click to open and edit text:;
#X msg 119 100 clear;
#X msg 168 101 read -c rgb-colors.txt;
#X obj 167 155 text define -k rgbcolors;
#A set 1 0 0 \; 1 0.25098 0 \; 1 0.501961 0 \; 1 0.74902 0 \; 1 1 0
\; 0.74902 1 0 \; 0.501961 1 0 \; 0.25098 1 0 \; 0 1 0 \; 0 1 0.25098
\; 0 1 0.501961 \; 0 1 0.74902 \; 0 1 1 \; 0 0.74902 1 \; 0 0.501961
1 \; 0 0.25098 1 \; 0 0 1 \; 0.25098 0 1 \; 0.501961 0 1 \; 0.74902
0 1 \; 1 0 1 \; 1 0 0.74902 \; 1 0 0.501961 \; 1 0 0.25098 \; 1 0 0
;
#X floatatom 104 241 5 0 5 0 - - -, f 5;
#X obj 108 306 text get rgbcolors;
#X obj 102 214 inlet;
#X obj 373 207 inlet;
#X obj 603 209 inlet;
#X floatatom 368 239 5 0 5 0 - - -, f 5;
#X obj 371 301 text get rgbcolors;
#X floatatom 601 240 5 0 5 0 - - -, f 5;
#X obj 606 300 text get rgbcolors;
#X obj 353 471 send toGUI;
#X msg 196 210 5;
#X msg 147 335 list /LCD1 clear;
#X msg 109 379 list /LCD1 paintrect 0 0 1 1 \$1 \$2 \$3 1;
#X obj 104 260 t f b;
#X msg 417 335 list /LCD2 clear;
#X msg 379 379 list /LCD2 paintrect 0 0 1 1 \$1 \$2 \$3 1;
#X msg 685 344 list /LCD3 clear;
#X msg 643 385 list /LCD3 paintrect 0 0 1 1 \$1 \$2 \$3 1;
#X obj 367 257 t f b;
#X obj 601 259 t f b;
#X connect 1 0 3 0;
#X connect 2 0 3 0;
#X connect 4 0 17 0;
#X connect 5 0 16 0;
#X connect 6 0 4 0;
#X connect 7 0 9 0;
#X connect 8 0 11 0;
#X connect 9 0 22 0;
#X connect 10 0 19 0;
#X connect 11 0 23 0;
#X connect 12 0 21 0;
#X connect 14 0 4 0;
#X connect 15 0 13 0;
#X connect 16 0 13 0;
#X connect 17 0 5 0;
#X connect 17 1 15 0;
#X connect 18 0 13 0;
#X connect 19 0 13 0;
#X connect 20 0 13 0;
#X connect 21 0 13 0;
#X connect 22 0 10 0;
#X connect 22 1 18 0;
#X connect 23 0 12 0;
#X connect 23 1 20 0;
