#N canvas 12 54 1351 686 10;
#X obj 216 548 writesf~ 2;
#X msg 184 380 stop;
#X obj 132 127 bng 15 250 50 0 empty empty stop 17 7 0 10 -262144 -1
-1;
#X obj 216 12 inlet~;
#X obj 131 106 bng 15 250 50 0 empty \$0-record_canvas empty 17 7 0
10 -262144 -1 -262144;
#X obj 126 293 t b b;
#X text 146 106 record;
#X obj 217 224 *~;
#X obj 103 125 vsl 15 35 0 1 0 0 empty empty vol 0 -9 0 10 -262144
-1 -1 3332 1;
#X obj 697 486 line~;
#X obj 18 374 t b a;
#X obj 332 12 inlet;
#X obj 328 33 route 0 1 2 3, f 25;
#X obj 331 74 sel 1;
#X obj 290 73 sel 1;
#X obj 520 12 inlet;
#X symbolatom 20 309 10 0 0 0 - - -, f 10;
#X msg 520 42 set \$1;
#X msg 20 339 open -bytes 4 recordings/\$1 \, start;
#X obj 312 275 readsf~ 2;
#X obj 362 312 bng 15 250 50 0 empty empty empty 17 7 0 10 -262144
-1 -1;
#X symbolatom 315 212 10 0 0 0 - - -, f 10;
#X obj 482 125 tgl 15 0 empty empty play 17 7 0 10 -262144 -1 -1 0
1;
#X obj 318 114 pack f s;
#X msg 362 332 1;
#X msg 318 136 \$2 \$1;
#X obj 318 158 unpack s f;
#X obj 484 191 sel 0 1;
#X msg 485 243 0;
#X msg 569 257 1;
#X msg 315 185 symbol \$1.wav;
#X msg 315 241 open recordings/\$1;
#X obj 311 545 outlet~;
#X obj 721 12 loadbang;
#X msg 697 454 \$1 20;
#X obj 647 362 v \$0-curvol;
#X floatatom 697 425 5 0 0 0 - - -, f 5;
#X msg 697 393 0;
#X obj 721 37 f \$1;
#X floatatom 721 67 5 0 0 0 - - -, f 5;
#X floatatom 696 332 5 0 0 0 - - -, f 5;
#X msg 99 59 0.98;
#X obj 415 516 env~;
#X obj 414 537 - 100;
#X obj 429 452 line~;
#X msg 429 424 \$1 20;
#X obj 414 567 s meterSdB;
#X obj 492 568 s meterSrms;
#X obj 428 389 r tglTransport;
#X obj 566 219 delay 1000 1 msec;
#X obj 415 490 *~ 1;
#X text 433 471 2019_04_14_10_56-changed so always runs;
#X connect 1 0 0 0;
#X connect 2 0 5 0;
#X connect 3 0 7 0;
#X connect 4 0 16 0;
#X connect 5 1 1 0;
#X connect 7 0 0 0;
#X connect 7 0 0 1;
#X connect 7 0 32 0;
#X connect 7 0 50 0;
#X connect 8 0 40 0;
#X connect 9 0 7 1;
#X connect 10 1 0 0;
#X connect 11 0 12 0;
#X connect 12 0 8 0;
#X connect 12 1 14 0;
#X connect 12 2 13 0;
#X connect 12 3 22 0;
#X connect 13 0 2 0;
#X connect 14 0 4 0;
#X connect 15 0 17 0;
#X connect 16 0 18 0;
#X connect 16 0 23 1;
#X connect 17 0 16 0;
#X connect 18 0 10 0;
#X connect 19 0 32 0;
#X connect 19 2 20 0;
#X connect 20 0 24 0;
#X connect 21 0 31 0;
#X connect 22 0 23 0;
#X connect 23 0 25 0;
#X connect 24 0 22 0;
#X connect 25 0 26 0;
#X connect 26 0 30 0;
#X connect 26 1 27 0;
#X connect 27 0 28 0;
#X connect 27 0 35 0;
#X connect 27 1 37 0;
#X connect 27 1 49 0;
#X connect 28 0 19 0;
#X connect 29 0 19 0;
#X connect 30 0 21 0;
#X connect 31 0 19 0;
#X connect 33 0 38 0;
#X connect 33 0 41 0;
#X connect 34 0 9 0;
#X connect 35 0 36 0;
#X connect 36 0 34 0;
#X connect 37 0 36 0;
#X connect 38 0 39 0;
#X connect 40 0 34 0;
#X connect 40 0 35 0;
#X connect 41 0 8 0;
#X connect 42 0 43 0;
#X connect 42 0 47 0;
#X connect 43 0 46 0;
#X connect 45 0 44 0;
#X connect 48 0 45 0;
#X connect 49 0 29 0;
#X connect 50 0 42 0;
#X coords 0 -1 1 1 96 75 2 100 100;
