#N canvas 3 54 1351 708 10;
#X msg 229 479 0 \$1;
#X msg 583 485 2 \$1;
#X msg 418 473 1 \$1;
#X msg 499 130 label \$1;
#X msg 288 129 label \$1;
#X msg 403 123 label \$1;
#X obj 98 11 loadbang;
#X obj 91 42 bng 15 250 50 0 empty empty empty 17 7 0 10 -262144 -1
-1;
#X obj 133 457 unpack f s;
#X floatatom 133 480 5 0 0 0 - - -, f 5;
#X obj 89 66 t b b b b b;
#X obj 103 208 tgl 56 0 empty empty by 2 18 0 36 -24198 -1 -1 0 1;
#X obj 86 512 effs/tabletop-pipd~-router 1 1;
#X obj 41 576 abs_bypass(s)~;
#X obj 43 455 inlet~;
#X obj 45 913 outlet~;
#X msg 164 124 0;
#X obj 20 125 sel 0 1;
#X msg 36 151 color 13 22 22;
#X msg 19 172 color 16 22 22;
#X obj 211 557 effs/geteffnamesandparamabrevs-viatxtobj;
#X obj 476 206 cnv 15 400 36 empty \$0-effnamecnv 01-chorus 2 18 0
32 -1 -262144 0;
#X msg 211 593 label \$1;
#X obj 211 617 s \$0-effnamecnv;
#X obj 650 112 inlet;
#X obj 567 851 outlet;
#X text 560 824 to send to tft screen;
#X obj 319 854 outlet;
#X obj 181 269 vsl 128 182 0 1 0 0 empty empty frq 0 -18 0 36 -262144
-1 -1 13407 1;
#X obj 462 269 vsl 128 182 0 1 0 0 empty empty dpt 0 -18 0 36 -262144
-1 -1 10118 1;
#X obj 320 269 vsl 128 182 0 1 0 0 empty empty del 0 -18 0 36 -262144
-1 -1 12343 1;
#X obj 169 205 tof-menubutton-sub;
#X msg 515 558 LIMIT;
#X obj 515 542 loadbang;
#X obj 45 884 *~;
#X obj 45 852 z~ 64;
#X obj 191 35 f \$1;
#X floatatom 191 57 5 0 0 0 - - -, f 5;
#X msg 723 51 0 \$1;
#X msg 833 51 1 \$1;
#X obj 833 25 r seleff\$1;
#X obj 725 25 r ard-slot\$1-by;
#X msg 511 591 set 100 40 150;
#X obj 600 276 hsl 182 128 0 1 0 0 empty empty DRY<->WET 0 -18 0 36
-262144 -1 -1 18100 1;
#X obj 86 857 limiter~;
#X obj 43 542 effs/wet-dry(s);
#X obj 1075 26 r drywet\$1;
#X msg 1075 52 5 \$1;
#X obj 911 25 r s\$1p1;
#X obj 967 25 r s\$1p2;
#X obj 1022 25 r s\$1p3;
#X msg 913 51 2 \$1;
#X msg 952 51 3 \$1;
#X msg 992 51 4 \$1;
#X obj 943 505 send;
#X symbolatom 964 452 10 0 0 0 - - -, f 10;
#X msg 964 428 symbol a\$1;
#X obj 994 355 + 12;
#X obj 994 326 * 4;
#X obj 994 294 - 1;
#X obj 962 385 + 1;
#X obj 1023 390 + 2;
#X obj 1066 391 + 3;
#X obj 1018 505 send;
#X symbolatom 1039 452 10 0 0 0 - - -, f 10;
#X msg 1039 428 symbol a\$1;
#X obj 1106 505 send;
#X symbolatom 1127 452 10 0 0 0 - - -, f 10;
#X msg 1127 428 symbol a\$1;
#X obj 795 356 tgl 96 0 empty empty SUS 17 7 0 10 -262144 -1 -1 0 1
;
#X msg 815 551 0 1;
#X msg 781 551 1 1;
#X obj 781 523 sel 0 1;
#X obj 782 498 t f f f;
#X obj 1162 26 r sus\$1;
#X msg 1159 51 6 \$1;
#X obj 651 144 route 0 1 2 3 4 5 6, f 58;
#X obj 44 826 *~ 1;
#X obj 96 681 sustain(inf)(v);
#X connect 0 0 12 2;
#X connect 1 0 12 2;
#X connect 2 0 12 2;
#X connect 3 0 29 0;
#X connect 3 0 66 0;
#X connect 4 0 28 0;
#X connect 4 0 54 0;
#X connect 5 0 30 0;
#X connect 5 0 63 0;
#X connect 6 0 7 0;
#X connect 7 0 10 0;
#X connect 8 0 9 0;
#X connect 9 0 12 1;
#X connect 9 0 20 0;
#X connect 10 3 16 0;
#X connect 10 4 36 0;
#X connect 11 0 13 2;
#X connect 11 0 17 0;
#X connect 11 0 27 0;
#X connect 12 0 45 1;
#X connect 13 0 77 0;
#X connect 13 0 78 0;
#X connect 14 0 12 0;
#X connect 14 0 13 1;
#X connect 14 0 45 0;
#X connect 16 0 31 0;
#X connect 16 0 43 0;
#X connect 17 0 19 0;
#X connect 17 1 18 0;
#X connect 18 0 11 0;
#X connect 19 0 11 0;
#X connect 20 0 22 0;
#X connect 20 0 25 0;
#X connect 20 1 4 0;
#X connect 20 2 5 0;
#X connect 20 3 3 0;
#X connect 22 0 23 0;
#X connect 24 0 76 0;
#X connect 28 0 0 0;
#X connect 29 0 1 0;
#X connect 30 0 2 0;
#X connect 31 0 8 0;
#X connect 32 0 44 0;
#X connect 33 0 32 0;
#X connect 33 0 42 0;
#X connect 34 0 15 0;
#X connect 35 0 34 0;
#X connect 36 0 37 0;
#X connect 37 0 59 0;
#X connect 38 0 76 0;
#X connect 39 0 76 0;
#X connect 40 0 39 0;
#X connect 41 0 38 0;
#X connect 42 0 44 0;
#X connect 43 0 45 2;
#X connect 44 0 34 1;
#X connect 45 0 13 0;
#X connect 45 1 13 0;
#X connect 46 0 47 0;
#X connect 47 0 76 0;
#X connect 48 0 51 0;
#X connect 49 0 52 0;
#X connect 50 0 53 0;
#X connect 51 0 76 0;
#X connect 52 0 76 0;
#X connect 53 0 76 0;
#X connect 55 0 54 1;
#X connect 56 0 55 0;
#X connect 57 0 60 0;
#X connect 57 0 61 0;
#X connect 57 0 62 0;
#X connect 58 0 57 0;
#X connect 59 0 58 0;
#X connect 60 0 56 0;
#X connect 61 0 65 0;
#X connect 62 0 68 0;
#X connect 64 0 63 1;
#X connect 65 0 64 0;
#X connect 67 0 66 1;
#X connect 68 0 67 0;
#X connect 69 0 73 0;
#X connect 70 0 78 1;
#X connect 71 0 78 1;
#X connect 72 0 71 0;
#X connect 72 1 70 0;
#X connect 73 0 72 0;
#X connect 73 1 78 2;
#X connect 74 0 75 0;
#X connect 75 0 76 0;
#X connect 76 0 11 0;
#X connect 76 1 31 0;
#X connect 76 2 28 0;
#X connect 76 3 30 0;
#X connect 76 4 29 0;
#X connect 76 5 43 0;
#X connect 76 6 69 0;
#X connect 77 0 35 0;
#X connect 77 0 44 0;
#X connect 78 0 77 0;
#X coords 0 -1 1 1 800 270 2 100 200;
