#N canvas 12 54 1351 708 10;
#X text 197 184 pop-up;
#X text 199 243 close;
#X obj 185 154 sel 0 1;
#X obj 185 26 r tglTuner;
#X msg 207 201 \; pd-tuner-plugin vis 1;
#X msg 185 272 \; pd-tuner-plugin vis 0;
#X obj 95 107 tgl 36 0 empty empty OFF|ON 0 18 0 10 -262144 -1 -1 1
1;
#X obj 109 344 s tunerNote;
#X obj 9 343 s tunerMIDI;
#X obj 1 155 tuner-plugin;
#X obj 6 110 nbx 6 28 -1e+37 1e+37 0 0 empty empty empty 0 -8 0 12
-262144 -1 -1 38.0293 256;
#X obj 204 343 s meterTunerVal;
#X obj 204 315 / 2;
#X obj 519 71 r~ toTuner;
#X obj 521 372 *~;
#X obj 521 352 z~ 64;
#X obj 536 315 limiter~ 98 1;
#X obj 519 264 *~;
#X obj 537 234 line~;
#X msg 540 207 \$1 100;
#X obj 538 186 f;
#X obj 538 161 dbtorms;
#X msg 536 130 120;
#X text 593 130 this section added 2019_04_16_08_08 \; so it can always
get some sort of signal;
#X obj 8 58 bng 42 250 50 0 empty empty < 8 21 0 36 -262144 -1 -1;
#X msg 151 65 0;
#X obj 152 88 s d9;
#X connect 2 0 5 0;
#X connect 2 1 4 0;
#X connect 2 1 22 0;
#X connect 3 0 2 0;
#X connect 6 0 9 1;
#X connect 9 0 8 0;
#X connect 9 0 10 0;
#X connect 9 1 7 0;
#X connect 9 2 12 0;
#X connect 12 0 11 0;
#X connect 13 0 17 0;
#X connect 14 0 9 0;
#X connect 15 0 14 0;
#X connect 16 0 14 1;
#X connect 17 0 15 0;
#X connect 17 0 16 0;
#X connect 18 0 17 1;
#X connect 19 0 18 0;
#X connect 20 0 19 0;
#X connect 21 0 20 0;
#X connect 22 0 21 0;
#X connect 24 0 25 0;
#X connect 25 0 26 0;
#X coords 0 -1 1 1 140 270 2 0 50;
