#N canvas 3 54 1425 818 10;
#X obj 701 301 cnv 15 184 114 empty empty sustain(inf) 2 12 0 14 -233017
-66577 0;
#X obj 132 190 vline~;
#X floatatom 587 390 5 0 0 1 window - #0-window, f 5;
#X obj 721 352 bng 15 250 50 0 \$0-add empty add 17 7 0 10 -262144
-4034 -1;
#X floatatom 189 126 5 0 100 0 - - -, f 5;
#X obj 132 146 pack f f f;
#X msg 132 168 0.75 \$3 \, 0 \$3 \$2;
#X obj 964 339 vsl 15 128 0 4 0 0 \$0-output empty volume 18 95 0 10
-262144 -1 -1 3175 1;
#X obj 392 481 *~;
#X obj 36 236 *~;
#X obj 585 440 bng 15 250 50 0 \$0-freeze empty freeze 17 7 0 10 -262144
-1 -1;
#X obj 702 513 hsl 128 15 0 2.4 0 1 \$0-damp empty damp 20 8 0 10 -262144
-86277 -1 0 0;
#X obj 14 20 inlet~;
#X obj 107 236 *~;
#X obj 249 365 ii 0;
#X obj 320 365 ii 1;
#X obj 407 437 pack f 40;
#X obj 407 459 line~;
#X obj 650 329 ii 100;
#X obj 189 103 ii 5;
#X floatatom 587 370 5 0 0 1 fadeTime - #0-fadetime, f 5;
#X obj 650 309 ii 5;
#X obj 684 -166 inlet;
#X obj 637 469 ii 0;
#X obj 222 103 r \$0-fadetime;
#X obj 160 83 r \$0-window;
#X obj 407 415 r \$0-output;
#X obj 177 365 r \$0-damp;
#X floatatom 699 532 5 0 0 0 - #0-damp -, f 5;
#X floatatom 982 454 5 0 0 0 - #0-output -, f 5;
#X obj 784 351 bng 15 250 50 0 \$0-clear empty clear 17 7 0 10 -258113
-4034 -1;
#X obj 800 126 s \$0-add;
#X obj 132 42 r \$0-add;
#X obj 393 365 line~;
#X msg 542 332 0 \, 1 100;
#X obj 678 189 s \$0-clear;
#X obj 678 58 bng 15 250 50 0 empty empty empty 17 7 0 10 -262144 -1
-1;
#X obj 755 84 bng 15 250 50 0 empty empty empty 17 7 0 10 -262144 -1
-1;
#X obj 800 58 bng 15 250 50 0 empty empty empty 17 7 0 10 -262144 -1
-1;
#X obj 759 147 s \$0-freeze;
#X obj 142 63 r \$0-freeze;
#N canvas 277 666 905 332 vfreeverb~ 0;
#N canvas 255 82 778 367 combfilters-left1 0;
#X obj 46 244 +~;
#X obj 61 194 lop~ 1000;
#X obj 231 244 +~;
#X obj 246 194 lop~ 1000;
#X obj 429 193 lop~ 1000;
#X obj 414 241 +~;
#X obj 610 193 lop~ 1000;
#X obj 595 241 +~;
#X obj 61 141 delread~ \$0-comb1left;
#X obj 246 142 delread~ \$0-comb2left;
#X obj 429 141 delread~ \$0-comb3left;
#X obj 610 141 delread~ \$0-comb4left;
#X obj 46 268 delwrite~ \$0-comb1left 100;
#X obj 231 268 delwrite~ \$0-comb2left 100;
#X obj 414 267 delwrite~ \$0-comb3left 100;
#X obj 595 267 delwrite~ \$0-comb4left 100;
#X obj 61 97 r \$0-comb1left;
#X obj 246 97 r \$0-comb2left;
#X obj 429 95 r \$0-comb3left;
#X obj 610 96 r \$0-comb4left;
#X obj 112 170 r \$0-frequency;
#X obj 297 170 r \$0-frequency;
#X obj 480 167 r \$0-frequency;
#X obj 661 167 r \$0-frequency;
#X obj 46 28 inlet~;
#X obj 338 326 outlet~;
#X floatatom 70 119 5 0 0 0 - - -, f 5;
#X floatatom 255 121 5 0 0 0 - - -, f 5;
#X floatatom 439 119 5 0 0 0 - - -, f 5;
#X floatatom 622 121 5 0 0 0 - - -, f 5;
#X obj 259 29 r~ \$0-room;
#X obj 259 58 clip~ 0 1;
#X obj 61 219 *~;
#X obj 246 219 *~;
#X obj 429 218 *~;
#X obj 610 218 *~;
#X connect 0 0 12 0;
#X connect 1 0 25 0;
#X connect 1 0 32 0;
#X connect 2 0 13 0;
#X connect 3 0 25 0;
#X connect 3 0 33 0;
#X connect 4 0 25 0;
#X connect 4 0 34 0;
#X connect 5 0 14 0;
#X connect 6 0 25 0;
#X connect 6 0 35 0;
#X connect 7 0 15 0;
#X connect 8 0 1 0;
#X connect 9 0 3 0;
#X connect 10 0 4 0;
#X connect 11 0 6 0;
#X connect 16 0 8 0;
#X connect 16 0 26 0;
#X connect 17 0 9 0;
#X connect 17 0 27 0;
#X connect 18 0 10 0;
#X connect 18 0 28 0;
#X connect 19 0 11 0;
#X connect 19 0 29 0;
#X connect 20 0 1 1;
#X connect 21 0 3 1;
#X connect 22 0 4 1;
#X connect 23 0 6 1;
#X connect 24 0 0 0;
#X connect 24 0 2 0;
#X connect 24 0 5 0;
#X connect 24 0 7 0;
#X connect 30 0 31 0;
#X connect 31 0 32 1;
#X connect 31 0 33 1;
#X connect 31 0 34 1;
#X connect 31 0 35 1;
#X connect 32 0 0 1;
#X connect 33 0 2 1;
#X connect 34 0 5 1;
#X connect 35 0 7 1;
#X restore 125 103 pd combfilters-left1;
#N canvas 23 81 358 650 diffusor-left 0;
#X obj 51 107 *~ 0.5;
#X obj 36 132 +~;
#X obj 66 132 -~;
#X obj 36 26 inlet~;
#X obj 81 238 *~ 0.5;
#X obj 66 263 +~;
#X obj 96 263 -~;
#X obj 111 368 *~ 0.5;
#X obj 96 393 +~;
#X obj 126 393 -~;
#X obj 141 498 *~ 0.5;
#X obj 126 523 +~;
#X obj 156 523 -~;
#X obj 156 605 outlet~;
#X text 95 28 freeverb's diffusor;
#X obj 156 576 hip~ 5;
#X floatatom 214 70 5 0 0 0 - - -, f 5;
#X floatatom 246 203 5 0 0 0 - - -, f 5;
#X floatatom 280 334 5 0 0 0 - - -, f 5;
#X floatatom 304 464 5 0 0 0 - - -, f 5;
#X obj 51 53 r \$0-allpass1left;
#X obj 51 80 delread~ \$0-allpass1left;
#X obj 36 158 delwrite~ \$0-allpass1left 40;
#X obj 81 186 r \$0-allpass2left;
#X obj 81 211 delread~ \$0-allpass2left;
#X obj 66 290 delwrite~ \$0-allpass2left 40;
#X obj 111 317 r \$0-allpass3left;
#X obj 111 341 delread~ \$0-allpass3left;
#X obj 96 420 delwrite~ \$0-allpass3left 40;
#X obj 141 447 r \$0-allpass4left;
#X obj 141 471 delread~ \$0-allpass4left;
#X obj 126 550 delwrite~ \$0-allpass4left 40;
#X connect 0 0 1 1;
#X connect 1 0 22 0;
#X connect 2 0 5 0;
#X connect 2 0 6 1;
#X connect 3 0 1 0;
#X connect 3 0 2 1;
#X connect 4 0 5 1;
#X connect 5 0 25 0;
#X connect 6 0 8 0;
#X connect 6 0 9 1;
#X connect 7 0 8 1;
#X connect 8 0 28 0;
#X connect 9 0 11 0;
#X connect 9 0 12 1;
#X connect 10 0 11 1;
#X connect 11 0 31 0;
#X connect 12 0 15 0;
#X connect 15 0 13 0;
#X connect 20 0 16 0;
#X connect 20 0 21 0;
#X connect 21 0 0 0;
#X connect 21 0 2 0;
#X connect 23 0 17 0;
#X connect 23 0 24 0;
#X connect 24 0 4 0;
#X connect 24 0 6 0;
#X connect 26 0 18 0;
#X connect 26 0 27 0;
#X connect 27 0 7 0;
#X connect 27 0 9 0;
#X connect 29 0 19 0;
#X connect 29 0 30 0;
#X connect 30 0 10 0;
#X connect 30 0 12 0;
#X restore 125 172 pd diffusor-left;
#N canvas 308 368 778 367 combfilters-left2 0;
#X obj 46 244 +~;
#X obj 61 194 lop~ 1000;
#X obj 231 244 +~;
#X obj 246 194 lop~ 1000;
#X obj 429 193 lop~ 1000;
#X obj 414 241 +~;
#X obj 610 193 lop~ 1000;
#X obj 595 241 +~;
#X obj 112 170 r \$0-frequency;
#X obj 297 170 r \$0-frequency;
#X obj 480 167 r \$0-frequency;
#X obj 661 167 r \$0-frequency;
#X obj 46 28 inlet~;
#X obj 338 326 outlet~;
#X obj 61 90 r \$0-comb5left;
#X obj 61 141 delread~ \$0-comb5left;
#X obj 46 268 delwrite~ \$0-comb5left 100;
#X obj 246 90 r \$0-comb6left;
#X obj 246 142 delread~ \$0-comb6left;
#X obj 231 268 delwrite~ \$0-comb6left 100;
#X obj 429 88 r \$0-comb7left;
#X obj 429 141 delread~ \$0-comb7left;
#X obj 414 267 delwrite~ \$0-comb7left 100;
#X obj 610 89 r \$0-comb8left;
#X obj 610 141 delread~ \$0-comb8left;
#X obj 595 267 delwrite~ \$0-comb8left 100;
#X floatatom 70 116 5 0 0 0 - - -, f 5;
#X floatatom 261 118 5 0 0 0 - - -, f 5;
#X floatatom 440 117 5 0 0 0 - - -, f 5;
#X floatatom 620 116 5 0 0 0 - - -, f 5;
#X obj 259 28 r~ \$0-room;
#X obj 259 58 clip~ 0 1;
#X obj 61 219 *~;
#X obj 246 219 *~;
#X obj 429 218 *~;
#X obj 610 218 *~;
#X connect 0 0 16 0;
#X connect 1 0 13 0;
#X connect 1 0 32 0;
#X connect 2 0 19 0;
#X connect 3 0 13 0;
#X connect 3 0 33 0;
#X connect 4 0 13 0;
#X connect 4 0 34 0;
#X connect 5 0 22 0;
#X connect 6 0 13 0;
#X connect 6 0 35 0;
#X connect 7 0 25 0;
#X connect 8 0 1 1;
#X connect 9 0 3 1;
#X connect 10 0 4 1;
#X connect 11 0 6 1;
#X connect 12 0 0 0;
#X connect 12 0 2 0;
#X connect 12 0 5 0;
#X connect 12 0 7 0;
#X connect 14 0 15 0;
#X connect 14 0 26 0;
#X connect 15 0 1 0;
#X connect 17 0 18 0;
#X connect 17 0 27 0;
#X connect 18 0 3 0;
#X connect 20 0 21 0;
#X connect 20 0 28 0;
#X connect 21 0 4 0;
#X connect 23 0 24 0;
#X connect 23 0 29 0;
#X connect 24 0 6 0;
#X connect 30 0 31 0;
#X connect 31 0 32 1;
#X connect 31 0 33 1;
#X connect 31 0 34 1;
#X connect 31 0 35 1;
#X connect 32 0 0 1;
#X connect 33 0 2 1;
#X connect 34 0 5 1;
#X connect 35 0 7 1;
#X restore 142 133 pd combfilters-left2;
#N canvas 960 214 778 367 combfilters-right1 0;
#X obj 46 244 +~;
#X obj 61 194 lop~ 1000;
#X obj 231 244 +~;
#X obj 246 194 lop~ 1000;
#X obj 429 193 lop~ 1000;
#X obj 414 241 +~;
#X obj 610 193 lop~ 1000;
#X obj 595 241 +~;
#X obj 112 170 r \$0-frequency;
#X obj 297 170 r \$0-frequency;
#X obj 480 167 r \$0-frequency;
#X obj 661 167 r \$0-frequency;
#X obj 46 28 inlet~;
#X obj 338 326 outlet~;
#X floatatom 70 119 5 0 0 0 - - -, f 5;
#X floatatom 255 121 5 0 0 0 - - -, f 5;
#X floatatom 439 119 5 0 0 0 - - -, f 5;
#X floatatom 622 121 5 0 0 0 - - -, f 5;
#X obj 61 141 delread~ \$0-comb1right;
#X obj 246 142 delread~ \$0-comb2right;
#X obj 429 141 delread~ \$0-comb3right;
#X obj 610 141 delread~ \$0-comb4right;
#X obj 61 97 r \$0-comb1right;
#X obj 246 97 r \$0-comb2right;
#X obj 429 95 r \$0-comb3right;
#X obj 610 97 r \$0-comb4right;
#X obj 46 268 delwrite~ \$0-comb1right 100;
#X obj 231 268 delwrite~ \$0-comb2right 100;
#X obj 414 267 delwrite~ \$0-comb3right 100;
#X obj 595 267 delwrite~ \$0-comb4right 100;
#X obj 259 28 r~ \$0-room;
#X obj 259 58 clip~ 0 1;
#X obj 246 219 *~;
#X obj 61 219 *~;
#X obj 429 218 *~;
#X obj 610 218 *~;
#X connect 0 0 26 0;
#X connect 1 0 13 0;
#X connect 1 0 33 0;
#X connect 2 0 27 0;
#X connect 3 0 13 0;
#X connect 3 0 32 0;
#X connect 4 0 13 0;
#X connect 4 0 34 0;
#X connect 5 0 28 0;
#X connect 6 0 13 0;
#X connect 6 0 35 0;
#X connect 7 0 29 0;
#X connect 8 0 1 1;
#X connect 9 0 3 1;
#X connect 10 0 4 1;
#X connect 11 0 6 1;
#X connect 12 0 0 0;
#X connect 12 0 2 0;
#X connect 12 0 5 0;
#X connect 12 0 7 0;
#X connect 18 0 1 0;
#X connect 19 0 3 0;
#X connect 20 0 4 0;
#X connect 21 0 6 0;
#X connect 22 0 14 0;
#X connect 22 0 18 0;
#X connect 23 0 15 0;
#X connect 23 0 19 0;
#X connect 24 0 16 0;
#X connect 24 0 20 0;
#X connect 25 0 17 0;
#X connect 25 0 21 0;
#X connect 30 0 31 0;
#X connect 31 0 32 1;
#X connect 31 0 33 1;
#X connect 31 0 34 1;
#X connect 31 0 35 1;
#X connect 32 0 2 1;
#X connect 33 0 0 1;
#X connect 34 0 5 1;
#X connect 35 0 7 1;
#X restore 350 99 pd combfilters-right1;
#N canvas 261 214 778 367 combfilters-right2 0;
#X obj 46 244 +~;
#X obj 61 194 lop~ 1000;
#X obj 231 244 +~;
#X obj 246 194 lop~ 1000;
#X obj 429 193 lop~ 1000;
#X obj 414 241 +~;
#X obj 610 193 lop~ 1000;
#X obj 595 241 +~;
#X obj 112 170 r \$0-frequency;
#X obj 297 170 r \$0-frequency;
#X obj 480 167 r \$0-frequency;
#X obj 661 167 r \$0-frequency;
#X obj 46 28 inlet~;
#X obj 338 326 outlet~;
#X floatatom 70 116 5 0 0 0 - - -, f 5;
#X floatatom 261 118 5 0 0 0 - - -, f 5;
#X floatatom 440 117 5 0 0 0 - - -, f 5;
#X floatatom 620 116 5 0 0 0 - - -, f 5;
#X obj 61 90 r \$0-comb5right;
#X obj 246 90 r \$0-comb6right;
#X obj 429 88 r \$0-comb7right;
#X obj 610 89 r \$0-comb8right;
#X obj 61 141 delread~ \$0-comb5right;
#X obj 246 142 delread~ \$0-comb6right;
#X obj 429 141 delread~ \$0-comb7right;
#X obj 610 141 delread~ \$0-comb8right;
#X obj 46 268 delwrite~ \$0-comb5right 100;
#X obj 231 268 delwrite~ \$0-comb6right 100;
#X obj 414 267 delwrite~ \$0-comb7right 100;
#X obj 595 267 delwrite~ \$0-comb8right 100;
#X obj 259 28 r~ \$0-room;
#X obj 259 58 clip~ 0 1;
#X obj 61 219 *~;
#X obj 246 219 *~;
#X obj 429 218 *~;
#X obj 610 218 *~;
#X connect 0 0 26 0;
#X connect 1 0 13 0;
#X connect 1 0 32 0;
#X connect 2 0 27 0;
#X connect 3 0 13 0;
#X connect 3 0 33 0;
#X connect 4 0 13 0;
#X connect 4 0 34 0;
#X connect 5 0 28 0;
#X connect 6 0 13 0;
#X connect 6 0 35 0;
#X connect 7 0 29 0;
#X connect 8 0 1 1;
#X connect 9 0 3 1;
#X connect 10 0 4 1;
#X connect 11 0 6 1;
#X connect 12 0 0 0;
#X connect 12 0 2 0;
#X connect 12 0 5 0;
#X connect 12 0 7 0;
#X connect 18 0 14 0;
#X connect 18 0 22 0;
#X connect 19 0 15 0;
#X connect 19 0 23 0;
#X connect 20 0 16 0;
#X connect 20 0 24 0;
#X connect 21 0 17 0;
#X connect 21 0 25 0;
#X connect 22 0 1 0;
#X connect 23 0 3 0;
#X connect 24 0 4 0;
#X connect 25 0 6 0;
#X connect 30 0 31 0;
#X connect 31 0 32 1;
#X connect 31 0 33 1;
#X connect 31 0 34 1;
#X connect 31 0 35 1;
#X connect 32 0 0 1;
#X connect 33 0 2 1;
#X connect 34 0 5 1;
#X connect 35 0 7 1;
#X restore 364 129 pd combfilters-right2;
#N canvas 25 80 358 650 diffusor-right 0;
#X obj 51 107 *~ 0.5;
#X obj 36 132 +~;
#X obj 66 132 -~;
#X obj 36 26 inlet~;
#X obj 81 238 *~ 0.5;
#X obj 66 263 +~;
#X obj 96 263 -~;
#X obj 111 368 *~ 0.5;
#X obj 96 393 +~;
#X obj 126 393 -~;
#X obj 141 498 *~ 0.5;
#X obj 126 523 +~;
#X obj 156 523 -~;
#X obj 156 605 outlet~;
#X text 95 28 freeverb's diffusor;
#X obj 156 576 hip~ 5;
#X floatatom 214 70 5 0 0 0 - - -, f 5;
#X floatatom 244 203 5 0 0 0 - - -, f 5;
#X floatatom 280 334 5 0 0 0 - - -, f 5;
#X floatatom 304 464 5 0 0 0 - - -, f 5;
#X obj 51 53 r \$0-allpass1right;
#X obj 51 80 delread~ \$0-allpass1right;
#X obj 36 158 delwrite~ \$0-allpass1right 40;
#X obj 81 186 r \$0-allpass2right;
#X obj 81 211 delread~ \$0-allpass2right;
#X obj 66 290 delwrite~ \$0-allpass2right 40;
#X obj 111 317 r \$0-allpass3right;
#X obj 111 341 delread~ \$0-allpass3right;
#X obj 96 420 delwrite~ \$0-allpass3right 40;
#X obj 141 447 r \$0-allpass4right;
#X obj 141 471 delread~ \$0-allpass4right;
#X obj 126 550 delwrite~ \$0-allpass4right 40;
#X connect 0 0 1 1;
#X connect 1 0 22 0;
#X connect 2 0 5 0;
#X connect 2 0 6 1;
#X connect 3 0 1 0;
#X connect 3 0 2 1;
#X connect 4 0 5 1;
#X connect 5 0 25 0;
#X connect 6 0 8 0;
#X connect 6 0 9 1;
#X connect 7 0 8 1;
#X connect 8 0 28 0;
#X connect 9 0 11 0;
#X connect 9 0 12 1;
#X connect 10 0 11 1;
#X connect 11 0 31 0;
#X connect 12 0 15 0;
#X connect 15 0 13 0;
#X connect 20 0 16 0;
#X connect 20 0 21 0;
#X connect 21 0 0 0;
#X connect 21 0 2 0;
#X connect 23 0 17 0;
#X connect 23 0 24 0;
#X connect 24 0 4 0;
#X connect 24 0 6 0;
#X connect 26 0 18 0;
#X connect 26 0 27 0;
#X connect 27 0 7 0;
#X connect 27 0 9 0;
#X connect 29 0 19 0;
#X connect 29 0 30 0;
#X connect 30 0 10 0;
#X connect 30 0 12 0;
#X restore 349 169 pd diffusor-right;
#X obj 171 51 *~ 0.015;
#X obj 125 230 *~ 1;
#X obj 349 228 *~ 1;
#X obj 43 228 *~ 1;
#X obj 269 228 *~ 1;
#X obj 64 205 r \$0-dry;
#X obj 370 203 r \$0-wet;
#X obj 146 205 r \$0-wet;
#X obj 42 14 inlet~;
#X obj 270 14 inlet~;
#X obj 125 272 outlet~;
#X obj 269 269 outlet~;
#X obj 514 14 inlet;
#X obj 602 14 inlet;
#X obj 684 16 inlet;
#N canvas 139 570 313 251 room 0;
#X obj 112 106 s~ \$0-room;
#X obj 96 30 inlet~;
#X obj 96 155 outlet~;
#X connect 1 0 0 0;
#X connect 1 0 2 0;
#X restore 766 45 pd room;
#N canvas 684 169 244 376 frequency 0;
#X obj 60 222 samplerate~;
#X obj 33 8 inlet;
#X obj 33 194 t f b;
#X obj 33 249 *;
#X obj 53 303 s \$0-frequency;
#X obj 33 327 outlet;
#X obj 33 64 * 0.4;
#X text 76 66 scaledamp;
#X obj 33 90 t b f;
#X obj 33 141 -;
#X msg 33 116 1;
#X obj 33 168 abs;
#X obj 33 275 * 0.5;
#X text 153 303 for [lop~];
#X obj 33 38 clip 0 2.4;
#X connect 0 0 3 1;
#X connect 1 0 14 0;
#X connect 2 0 3 0;
#X connect 2 1 0 0;
#X connect 3 0 12 0;
#X connect 6 0 8 0;
#X connect 8 0 10 0;
#X connect 8 1 9 1;
#X connect 9 0 11 0;
#X connect 10 0 9 0;
#X connect 11 0 2 0;
#X connect 12 0 5 0;
#X connect 12 0 4 0;
#X connect 14 0 6 0;
#X restore 514 45 pd frequency;
#N canvas 0 50 170 187 scalewet 0;
#X obj 22 42 inlet;
#X obj 22 143 outlet;
#X obj 22 73 * 3;
#X text 49 74 scalewet;
#X obj 40 112 s \$0-wet;
#X connect 0 0 2 0;
#X connect 2 0 1 0;
#X connect 2 0 4 0;
#X restore 684 45 pd scalewet;
#N canvas 0 50 220 198 scaledry 0;
#X obj 32 74 * 2;
#X obj 32 40 inlet;
#X obj 32 141 outlet;
#X text 58 75 scaledry;
#X obj 41 105 s \$0-dry;
#X connect 0 0 2 0;
#X connect 0 0 4 0;
#X connect 1 0 0 0;
#X restore 602 45 pd scaledry;
#X floatatom 766 90 5 0 0 0 - - -, f 5;
#X floatatom 514 91 10 0 0 0 - - -, f 10;
#X floatatom 602 90 5 0 0 0 - - -, f 5;
#X floatatom 684 90 5 0 0 0 - - -, f 5;
#N canvas 403 81 635 684 tuning 0;
#X msg 332 81 1139 \, 1211 \, 1300 \, 1379 \, 1445 \, 1514 \, 1580
\, 1640;
#X text 72 57 combfilter tunings left;
#X text 377 56 combfilter tunings right;
#X text 71 360 allpass tunings left;
#X text 383 355 allpass tunings right;
#N canvas 243 170 195 233 sampstoms 0;
#X obj 27 21 inlet;
#X obj 54 86 samplerate~;
#X obj 27 111 /;
#X obj 27 57 t f b;
#X obj 27 136 * 1000;
#X obj 27 162 outlet;
#X connect 0 0 3 0;
#X connect 1 0 2 1;
#X connect 2 0 4 0;
#X connect 3 0 2 0;
#X connect 3 1 1 0;
#X connect 4 0 5 0;
#X restore 30 107 pd sampstoms;
#X msg 30 82 1116 \, 1188 \, 1277 \, 1356 \, 1422 \, 1491 \, 1557 \,
1617;
#X obj 57 188 +;
#X msg 57 159 1;
#X obj 30 135 t f b;
#X obj 87 188 f;
#X obj 30 56 t b b;
#X msg 87 159 0;
#X obj 57 212 pack f \$0;
#X msg 57 238 \$2-comb\$1left;
#X obj 30 282 s;
#X obj 57 265 symbol;
#N canvas 0 50 195 233 sampstoms 0;
#X obj 27 21 inlet;
#X obj 54 86 samplerate~;
#X obj 27 111 /;
#X obj 27 57 t f b;
#X obj 27 136 * 1000;
#X obj 27 162 outlet;
#X connect 0 0 3 0;
#X connect 1 0 2 1;
#X connect 2 0 4 0;
#X connect 3 0 2 0;
#X connect 3 1 1 0;
#X connect 4 0 5 0;
#X restore 332 107 pd sampstoms;
#X obj 359 188 +;
#X msg 359 159 1;
#X obj 332 135 t f b;
#X obj 389 188 f;
#X msg 389 159 0;
#X obj 359 212 pack f \$0;
#X obj 332 282 s;
#X obj 359 265 symbol;
#X obj 332 56 t b b;
#X msg 359 238 \$2-comb\$1right;
#X obj 30 360 t b b;
#N canvas 0 50 195 233 sampstoms 0;
#X obj 27 21 inlet;
#X obj 54 86 samplerate~;
#X obj 27 111 /;
#X obj 27 57 t f b;
#X obj 27 136 * 1000;
#X obj 27 162 outlet;
#X connect 0 0 3 0;
#X connect 1 0 2 1;
#X connect 2 0 4 0;
#X connect 3 0 2 0;
#X connect 3 1 1 0;
#X connect 4 0 5 0;
#X restore 30 411 pd sampstoms;
#X obj 57 492 +;
#X msg 57 463 1;
#X obj 30 439 t f b;
#X obj 87 492 f;
#X msg 87 463 0;
#X obj 57 516 pack f \$0;
#X obj 30 586 s;
#X obj 57 569 symbol;
#X obj 334 356 t b b;
#N canvas 0 50 195 233 sampstoms 0;
#X obj 27 21 inlet;
#X obj 54 86 samplerate~;
#X obj 27 111 /;
#X obj 27 57 t f b;
#X obj 27 136 * 1000;
#X obj 27 162 outlet;
#X connect 0 0 3 0;
#X connect 1 0 2 1;
#X connect 2 0 4 0;
#X connect 3 0 2 0;
#X connect 3 1 1 0;
#X connect 4 0 5 0;
#X restore 334 407 pd sampstoms;
#X obj 361 488 +;
#X msg 361 459 1;
#X obj 334 435 t f b;
#X obj 391 488 f;
#X msg 391 459 0;
#X obj 361 512 pack f \$0;
#X obj 334 582 s;
#X obj 361 565 symbol;
#X obj 30 22 loadbang;
#X obj 332 27 loadbang;
#X obj 30 334 loadbang;
#X obj 334 331 loadbang;
#X obj 268 41 bng 15 250 50 0 empty empty empty 17 7 0 10 -262144 -1
-1;
#X msg 30 386 225 \, 556 \, 441 \, 341;
#X msg 334 380 248 \, 579 \, 464 \, 364;
#X msg 57 542 \$2-allpass\$1left;
#X msg 361 539 \$2-allpass\$1right;
#X text 27 624 Original Freeverb delay line lengths are converted to
milliseconds \, based on samplerate.;
#X connect 0 0 17 0;
#X connect 5 0 9 0;
#X connect 6 0 5 0;
#X connect 7 0 10 0;
#X connect 7 0 13 0;
#X connect 8 0 7 0;
#X connect 9 0 15 0;
#X connect 9 1 8 0;
#X connect 10 0 7 1;
#X connect 11 0 6 0;
#X connect 11 1 12 0;
#X connect 12 0 10 0;
#X connect 13 0 14 0;
#X connect 14 0 16 0;
#X connect 16 0 15 1;
#X connect 17 0 20 0;
#X connect 18 0 21 0;
#X connect 18 0 23 0;
#X connect 19 0 18 0;
#X connect 20 0 24 0;
#X connect 20 1 19 0;
#X connect 21 0 18 1;
#X connect 22 0 21 0;
#X connect 23 0 27 0;
#X connect 25 0 24 1;
#X connect 26 0 0 0;
#X connect 26 1 22 0;
#X connect 27 0 25 0;
#X connect 28 0 53 0;
#X connect 28 1 34 0;
#X connect 29 0 32 0;
#X connect 30 0 33 0;
#X connect 30 0 35 0;
#X connect 31 0 30 0;
#X connect 32 0 36 0;
#X connect 32 1 31 0;
#X connect 33 0 30 1;
#X connect 34 0 33 0;
#X connect 35 0 55 0;
#X connect 37 0 36 1;
#X connect 38 0 54 0;
#X connect 38 1 44 0;
#X connect 39 0 42 0;
#X connect 40 0 43 0;
#X connect 40 0 45 0;
#X connect 41 0 40 0;
#X connect 42 0 46 0;
#X connect 42 1 41 0;
#X connect 43 0 40 1;
#X connect 44 0 43 0;
#X connect 45 0 56 0;
#X connect 47 0 46 1;
#X connect 48 0 11 0;
#X connect 49 0 26 0;
#X connect 50 0 28 0;
#X connect 51 0 38 0;
#X connect 52 0 11 0;
#X connect 52 0 28 0;
#X connect 52 0 26 0;
#X connect 52 0 38 0;
#X connect 53 0 29 0;
#X connect 54 0 39 0;
#X connect 55 0 37 0;
#X connect 56 0 47 0;
#X restore 823 45 pd tuning;
#X obj 290 203 r \$0-dry;
#X obj 766 14 inlet~;
#X obj 766 67 avg~;
#X connect 0 0 1 0;
#X connect 1 0 7 0;
#X connect 2 0 1 0;
#X connect 3 0 5 0;
#X connect 4 0 5 0;
#X connect 5 0 8 0;
#X connect 6 0 3 0;
#X connect 6 0 0 0;
#X connect 6 0 4 0;
#X connect 6 0 2 0;
#X connect 7 0 16 0;
#X connect 8 0 17 0;
#X connect 9 0 16 0;
#X connect 10 0 17 0;
#X connect 11 0 9 1;
#X connect 12 0 8 1;
#X connect 13 0 7 1;
#X connect 14 0 6 0;
#X connect 14 0 9 0;
#X connect 15 0 6 0;
#X connect 15 0 10 0;
#X connect 18 0 22 0;
#X connect 19 0 24 0;
#X connect 20 0 23 0;
#X connect 21 0 32 0;
#X connect 22 0 26 0;
#X connect 23 0 28 0;
#X connect 24 0 27 0;
#X connect 30 0 10 1;
#X connect 31 0 21 0;
#X connect 32 0 25 0;
#X restore 35 391 pd vfreeverb~ ----------------------------------------------
;
#X obj 408 515 r \$0-add;
#X obj 417 536 r \$0-freeze;
#X msg 393 290 0;
#X obj 393 611 *~;
#X obj 408 589 line~;
#X obj 406 224 r \$0-clear;
#X obj 34 481 *~;
#X obj 49 437 pack f 40;
#X obj 49 459 line~;
#X obj 49 415 r \$0-output;
#X obj 49 515 r \$0-add;
#X obj 58 536 r \$0-freeze;
#X obj 34 611 *~;
#X obj 49 589 line~;
#X obj 1052 327 s \$0-fadeout;
#X msg 492 559 0 \$1;
#X obj 492 536 r \$0-fadeout;
#X obj 393 268 del 0;
#X obj 133 536 r \$0-fadeout;
#X msg 133 559 0 \$1;
#X obj 420 244 r \$0-fadeout;
#X obj 718 148 t b f;
#X obj 542 269 r \$0-freeze;
#X msg 49 559 1 40;
#X msg 408 559 1 40;
#X obj 542 291 t b b;
#X obj 450 291 t b b;
#X obj 450 269 r \$0-add;
#X msg 393 204 stop;
#X obj 569 313 s \$0-stop;
#X obj 477 313 s \$0-stop;
#X obj 393 184 r \$0-stop;
#X msg 450 332 1;
#X obj 922 65 s \$0-damp;
#X obj 964 313 ii 1;
#X obj 881 85 s \$0-window;
#X obj 1057 189 s \$0-fadetime;
#X obj 1060 264 s \$0-fadeout;
#X obj 1060 226 r \$0-fadetime;
#X obj 1110 59 loadbang;
#X obj 1110 81 del 100;
#X msg 1110 103 2000;
#X obj 1241 101 f \$1;
#X floatatom 985 347 5 0 0 2 num - -, f 5;
#X obj 584 412 sel 0 1;
#X obj 519 371 tgl 15 0 empty empty clr|new 17 7 0 10 -262144 -1 -1
0 1;
#N canvas 181 86 657 686 bypass 0;
#X obj 195 -4 route 0 1;
#X obj 195 23 bng 15 250 50 0 empty empty empty 17 7 0 10 -262144 -1
-1;
#X obj 220 24 bng 15 250 50 0 empty empty empty 17 7 0 10 -262144 -1
-1;
#X msg 168 65 1;
#X msg 195 65 0;
#X msg 220 65 0;
#X msg 246 65 1;
#X obj 74 218 outlet~;
#X obj 195 -33 inlet;
#X obj 75 -33 inlet~;
#X obj 138 -33 inlet~;
#N canvas 628 270 450 300 pot~ 0;
#X obj -183 96 line~;
#X obj -220 175 *~;
#X obj -182 135 *~;
#X obj -221 20 inlet~;
#X obj -221 205 outlet~;
#X obj -183 43 inlet;
#X msg -183 69 \$1 2000;
#X connect 0 0 2 0;
#X connect 0 0 2 1;
#X connect 1 0 4 0;
#X connect 2 0 1 1;
#X connect 3 0 1 0;
#X connect 5 0 6 0;
#X connect 6 0 0 0;
#X restore 74 138 pd pot~;
#N canvas 3 55 1280 718 pot~ 0;
#X obj 170 154 line~;
#X obj 133 233 *~;
#X obj 171 193 *~;
#X obj 132 78 inlet~;
#X obj 132 263 outlet~;
#X obj 170 101 inlet;
#X msg 170 127 \$1 2000;
#X connect 0 0 2 0;
#X connect 0 0 2 1;
#X connect 1 0 4 0;
#X connect 2 0 1 1;
#X connect 3 0 1 0;
#X connect 5 0 6 0;
#X connect 6 0 0 0;
#X restore 137 138 pd pot~;
#X connect 0 0 1 0;
#X connect 0 1 2 0;
#X connect 1 0 3 0;
#X connect 1 0 4 0;
#X connect 2 0 5 0;
#X connect 2 0 6 0;
#X connect 3 0 11 1;
#X connect 4 0 12 1;
#X connect 5 0 11 1;
#X connect 6 0 12 1;
#X connect 8 0 0 0;
#X connect 9 0 11 0;
#X connect 10 0 12 0;
#X connect 11 0 7 0;
#X connect 12 0 7 0;
#X restore 16 688 pd bypass;
#X obj 33 649 *~ 1;
#X obj 840 352 tgl 15 0 empty empty by 17 7 0 10 -262144 -1 -1 0 1
;
#X obj 16 710 outlet~;
#X msg 709 231 0;
#X obj 680 25 route bang clear freeze add fadeTime window damp new
volume by, f 77;
#X obj 259 -30 r sus\$1clr;
#X obj 336 -31 r sus\$1add;
#X obj 432 -31 r sus\$1by;
#X msg 432 -9 by \$1;
#X msg 347 -6 add \$1;
#X msg 255 -8 clear \$1;
#X obj 1318 -18 inlet;
#X obj 815 309 tgl 15 0 empty empty switch~ 17 7 0 10 -262144 -1 -1
0 1;
#X obj 1322 35 switch~;
#X obj 683 -144 route 0 1 2, f 15;
#X msg 684 -34 add;
#X obj 684 -62 sel 1;
#X obj 737 -62 sel 1;
#X msg 737 -31 clear;
#X obj 795 -62 sel 1;
#X obj 795 -35 tgl 15 0 empty empty empty 17 7 0 10 -262144 -1 -1 0
1;
#X msg 795 -15 by \$1;
#X connect 1 0 9 1;
#X connect 1 0 13 1;
#X connect 4 0 5 2;
#X connect 5 0 6 0;
#X connect 6 0 1 0;
#X connect 8 0 45 0;
#X connect 9 0 41 0;
#X connect 12 0 9 0;
#X connect 12 0 13 0;
#X connect 12 0 88 1;
#X connect 13 0 41 1;
#X connect 14 0 41 3;
#X connect 15 0 41 4;
#X connect 16 0 17 0;
#X connect 17 0 8 1;
#X connect 18 0 2 0;
#X connect 19 0 4 0;
#X connect 21 0 20 0;
#X connect 22 0 103 0;
#X connect 23 0 11 0;
#X connect 24 0 4 0;
#X connect 25 0 5 1;
#X connect 26 0 16 0;
#X connect 27 0 41 2;
#X connect 32 0 5 0;
#X connect 33 0 41 5;
#X connect 34 0 33 0;
#X connect 36 0 35 0;
#X connect 37 0 39 0;
#X connect 38 0 3 0;
#X connect 40 0 5 0;
#X connect 41 0 48 0;
#X connect 41 1 8 0;
#X connect 42 0 66 0;
#X connect 43 0 66 0;
#X connect 44 0 33 0;
#X connect 45 0 89 0;
#X connect 46 0 45 1;
#X connect 47 0 59 0;
#X connect 48 0 54 0;
#X connect 49 0 50 0;
#X connect 50 0 48 1;
#X connect 51 0 49 0;
#X connect 52 0 65 0;
#X connect 53 0 65 0;
#X connect 54 0 89 0;
#X connect 55 0 54 1;
#X connect 57 0 46 0;
#X connect 58 0 57 0;
#X connect 59 0 44 0;
#X connect 60 0 61 0;
#X connect 61 0 55 0;
#X connect 62 0 59 1;
#X connect 63 0 30 0;
#X connect 63 1 56 0;
#X connect 64 0 67 0;
#X connect 65 0 55 0;
#X connect 66 0 46 0;
#X connect 67 0 34 0;
#X connect 67 1 71 0;
#X connect 68 0 74 0;
#X connect 68 1 72 0;
#X connect 69 0 68 0;
#X connect 70 0 59 0;
#X connect 73 0 70 0;
#X connect 74 0 33 0;
#X connect 76 0 7 0;
#X connect 80 0 79 0;
#X connect 81 0 82 0;
#X connect 81 0 84 0;
#X connect 82 0 83 0;
#X connect 82 0 92 0;
#X connect 83 0 20 0;
#X connect 84 0 85 0;
#X connect 86 0 30 0;
#X connect 86 1 10 0;
#X connect 87 0 86 0;
#X connect 88 0 91 0;
#X connect 89 0 88 0;
#X connect 90 0 88 2;
#X connect 92 0 90 0;
#X connect 93 0 36 0;
#X connect 93 1 63 0;
#X connect 93 2 37 0;
#X connect 93 3 38 0;
#X connect 93 4 20 0;
#X connect 93 4 78 0;
#X connect 93 5 2 0;
#X connect 93 5 77 0;
#X connect 93 6 75 0;
#X connect 93 6 11 0;
#X connect 93 7 87 0;
#X connect 93 8 7 0;
#X connect 93 9 90 0;
#X connect 94 0 99 0;
#X connect 95 0 98 0;
#X connect 96 0 97 0;
#X connect 97 0 93 0;
#X connect 98 0 93 0;
#X connect 99 0 93 0;
#X connect 100 0 101 0;
#X connect 101 0 102 0;
#X connect 103 0 105 0;
#X connect 103 1 106 0;
#X connect 103 2 108 0;
#X connect 104 0 93 0;
#X connect 105 0 104 0;
#X connect 106 0 107 0;
#X connect 107 0 93 0;
#X connect 108 0 109 0;
#X connect 109 0 110 0;
#X connect 110 0 93 0;
#X coords 0 -1 1 1 186 116 2 700 300;
