#N canvas 3 59 1425 788 10;
#N canvas 0 50 566 300 spigot~ 0;
#X obj 63 24 inlet~;
#X obj 95 75 == 0;
#X obj 174 75 == 1;
#X obj 64 174 *~;
#X obj 180 166 *~;
#X obj 179 246 outlet~;
#X obj 63 244 outlet~;
#X obj 233 23 inlet;
#X connect 0 0 3 0;
#X connect 0 0 4 0;
#X connect 1 0 3 1;
#X connect 2 0 4 1;
#X connect 3 0 6 0;
#X connect 4 0 5 0;
#X connect 7 0 1 0;
#X connect 7 0 2 0;
#X restore 393 138 pd spigot~;
#X obj 219 125 tgl 15 0 empty empty off|on 17 7 0 10 -260097 -1 -1
1 1;
#X obj 394 744 +~;
#X obj 220 13 loadbang;
#X obj 502 562 *~ -1;
#X obj 501 693 hip~ 31.83;
#X obj 502 721 *~;
#X obj 149 192 hsl 128 15 0 0.1 0 0 empty empty Volume -2 8 0 10 -262144
-1 -1 5100 1;
#X obj 501 462 hip~;
#X floatatom 544 462 5 0 0 0 - - -, f 5;
#X obj 148 169 hsl 128 15 9 1 1 0 empty empty fuzz -2 8 0 10 -262144
-1 -1 4000 1;
#X obj 588 461 * 7.958;
#X obj 501 515 *~ 6.5;
#X obj 501 321 *~ -1;
#X obj 499 272 *~ 6.5;
#X obj 432 49 loadbang;
#X obj 502 400 *~;
#X obj 573 350 abs;
#X floatatom 574 399 5 0 0 0 - - -, f 5;
#X obj 573 324 - 9;
#X obj 822 180 log~;
#X obj 822 201 *~ 0.5;
#X obj 822 223 +~ 1;
#X obj 821 247 clip~ -1 100;
#X obj 822 274 -~ 0.18;
#X obj 147 150 hsl 128 15 0 5 0 0 empty empty Boost_trim -2 8 0 10
-262144 -1 -1 1857 1;
#X obj 483 162 *~ 1;
#X msg 436 87 0.18;
#X floatatom 890 277 5 0 0 0 - - -, f 5;
#X obj 499 246 *~;
#N canvas 0 50 566 300 spigot~ 0;
#X obj 63 24 inlet~;
#X obj 95 75 == 0;
#X obj 174 75 == 1;
#X obj 64 174 *~;
#X obj 180 166 *~;
#X obj 179 246 outlet~;
#X obj 63 244 outlet~;
#X obj 233 23 inlet;
#X connect 0 0 3 0;
#X connect 0 0 4 0;
#X connect 1 0 3 1;
#X connect 2 0 4 1;
#X connect 3 0 6 0;
#X connect 4 0 5 0;
#X connect 7 0 1 0;
#X connect 7 0 2 0;
#X restore 461 197 pd spigot~;
#X obj 104 73 tgl 15 0 empty empty Boost 17 7 0 10 -262144 -1 -1 0
1;
#X obj 500 296 clip~ -1 1;
#X obj 501 539 clip~ -1 1;
#X obj 573 375 + 0.5;
#X obj 393 115 inlet~;
#X obj 105 103 cnv 15 155 20 empty empty Traditional_Fuzz_v1 0 10 0
14 -1 -262144 0;
#X obj 394 778 outlet~;
#X msg 224 42 0;
#X obj 623 25 inlet;
#X obj 1206 60 inlet;
#X obj 623 47 route 0 1 2;
#X obj 1208 88 tgl 15 0 empty empty empty 17 7 0 10 -262144 -1 -1 1
1;
#X obj 1206 110 switch~;
#X obj 546 106 * 5;
#X obj 589 108 * 0.1;
#X obj 651 110 expr 9-$f1*8;
#X connect 0 0 2 0;
#X connect 0 1 26 0;
#X connect 1 0 0 1;
#X connect 2 0 37 0;
#X connect 3 0 38 0;
#X connect 4 0 5 0;
#X connect 5 0 6 0;
#X connect 6 0 2 1;
#X connect 7 0 6 1;
#X connect 8 0 12 0;
#X connect 9 0 8 1;
#X connect 10 0 11 0;
#X connect 10 0 19 0;
#X connect 11 0 9 0;
#X connect 12 0 33 0;
#X connect 13 0 16 0;
#X connect 14 0 32 0;
#X connect 15 0 27 0;
#X connect 16 0 8 0;
#X connect 17 0 34 0;
#X connect 18 0 16 1;
#X connect 19 0 17 0;
#X connect 20 0 21 0;
#X connect 21 0 22 0;
#X connect 22 0 23 0;
#X connect 23 0 24 0;
#X connect 24 0 29 1;
#X connect 25 0 28 0;
#X connect 26 0 30 0;
#X connect 27 0 25 0;
#X connect 28 0 24 1;
#X connect 29 0 14 0;
#X connect 30 0 14 0;
#X connect 30 1 20 0;
#X connect 30 1 29 0;
#X connect 31 0 30 1;
#X connect 32 0 13 0;
#X connect 33 0 4 0;
#X connect 34 0 18 0;
#X connect 35 0 0 0;
#X connect 38 0 31 0;
#X connect 39 0 41 0;
#X connect 40 0 42 0;
#X connect 41 0 44 0;
#X connect 41 1 45 0;
#X connect 41 2 46 0;
#X connect 42 0 43 0;
#X connect 42 0 1 0;
#X connect 44 0 25 0;
#X connect 45 0 7 0;
#X connect 46 0 10 0;
#X coords 0 -1 1 1 186 116 2 100 100;
