#N canvas 3 54 1425 818 10;
#X obj 304 442 vsl 15 128 0 200 0 0 empty empty empty 0 -9 0 10 -262144
-1 -1 8500 1;
#X obj 28 530 zexy-limiter~;
#X obj 144 666 dac~;
#X obj 302 168 loadbang;
#X obj 305 197 tgl 15 0 empty empty empty 17 7 0 10 -262144 -1 -1 1
1;
#X obj 454 186 mknob 67 100 0 1 0 0 empty empty empty -2 -6 0 8 -262144
-1 -1 0 1;
#X msg 461 281 0 \$1;
#X obj 552 187 mknob 67 100 0 1 0 0 empty empty empty -2 -6 0 8 -262144
-1 -1 0 1;
#X msg 558 272 1 \$1;
#X obj 671 192 mknob 67 100 0 1 0 0 empty empty empty -2 -6 0 8 -262144
-1 -1 0 1;
#X msg 675 277 2 \$1;
#X obj 84 331 octaver-harmonizer(p);
#X obj 82 144 ps~;
#X text 525 401 Facteur de transposition en échantillons définissant
l'incrément ou le décrément du temps de retard., f 47;
#X text 602 366 Convertit les demi-tons en facteur de transposition
, f 27;
#X connect 0 0 1 2;
#X connect 1 0 2 0;
#X connect 1 1 2 1;
#X connect 3 0 4 0;
#X connect 4 0 11 2;
#X connect 5 0 6 0;
#X connect 6 0 11 1;
#X connect 7 0 8 0;
#X connect 8 0 11 1;
#X connect 9 0 10 0;
#X connect 10 0 11 1;
#X connect 11 0 1 0;
#X connect 11 0 1 1;
#X connect 12 0 11 0;
