#N canvas 12 54 1425 818 10;
#X obj 101 101 cnv 20 184 114 empty ColorForm Octaver 2 12 0 14 -188398
-1 1.04858e+06;
#X obj 238 688 outlet~;
#X floatatom 610 181 5 0 0 0 - - -, f 5;
#X obj 240 438 nbx 5 14 -1e+37 1e+37 0 0 empty empty empty 0 -8 0 10
-203904 -1 -1 0.5 256;
#X text 251 505 Double tête de lecture à transposition, f 22;
#X obj 240 535 delpitch~ \$0-delay 100, f 24;
#X obj 240 365 nbx 5 14 -1e+37 1e+37 0 0 empty \$0-halftone-r empty
0 -8 0 10 -203904 -1 -1 -12 256;
#X msg 240 459 \$1 20;
#X obj 240 484 line~;
#X text 296 425 Facteur de transposition en échantillons définissant
l'incrément ou le décrément du temps de retard., f 47;
#X text 297 357 Transposition en demi-tons, f 14;
#X text 373 390 Convertit les demi-tons en facteur de transposition
, f 27;
#N canvas 3 54 450 300 init 0;
#X obj 30 77 s \$0-halftone-r;
#X obj 30 33 loadbang;
#X msg 30 55 0;
#X obj 30 103 loadbang;
#X obj 30 147 s \$0-frequency-r;
#X msg 30 125 220;
#X connect 1 0 2 0;
#X connect 2 0 0 0;
#X connect 3 0 5 0;
#X connect 5 0 4 0;
#X restore 536 55 pd init;
#N canvas 0 50 450 300 halftone 0;
#X obj 59 155 pow, f 5;
#X obj 59 57 t b f, f 13;
#X obj 59 105 f 2;
#X obj 59 81 t b b;
#X obj 86 105 f 1;
#X obj 86 130 / 12;
#X obj 59 181 pow, f 13;
#X obj 59 33 inlet half-tone;
#X obj 59 206 outlet factor;
#X text 163 112 factor = pow(pow(2 \, 1/12) \, halftone);
#X connect 0 0 6 0;
#X connect 1 0 3 0;
#X connect 1 1 6 1;
#X connect 2 0 0 0;
#X connect 3 0 2 0;
#X connect 3 1 4 0;
#X connect 4 0 5 0;
#X connect 5 0 0 1;
#X connect 6 0 8 0;
#X connect 7 0 1 0;
#X restore 240 395 pd halftone to factor;
#X obj 609 436 nbx 5 14 -1e+37 1e+37 0 0 empty empty empty 0 -8 0 10
-203904 -1 -1 0.25 256;
#X text 620 503 Double tête de lecture à transposition, f 22;
#X obj 609 533 delpitch~ \$0-delay 100, f 24;
#X obj 609 363 nbx 5 14 -1e+37 1e+37 0 0 empty \$0-halftone-r empty
0 -8 0 10 -203904 -1 -1 -24 256;
#X msg 609 457 \$1 20;
#X obj 609 482 line~;
#X text 665 423 Facteur de transposition en échantillons définissant
l'incrément ou le décrément du temps de retard., f 47;
#X text 666 355 Transposition en demi-tons, f 14;
#X text 742 388 Convertit les demi-tons en facteur de transposition
, f 27;
#N canvas 0 50 450 300 halftone 0;
#X obj 59 155 pow, f 5;
#X obj 59 57 t b f, f 13;
#X obj 59 105 f 2;
#X obj 59 81 t b b;
#X obj 86 105 f 1;
#X obj 86 130 / 12;
#X obj 59 181 pow, f 13;
#X obj 59 33 inlet half-tone;
#X obj 59 206 outlet factor;
#X text 163 112 factor = pow(pow(2 \, 1/12) \, halftone);
#X connect 0 0 6 0;
#X connect 1 0 3 0;
#X connect 1 1 6 1;
#X connect 2 0 0 0;
#X connect 3 0 2 0;
#X connect 3 1 4 0;
#X connect 4 0 5 0;
#X connect 5 0 0 1;
#X connect 6 0 8 0;
#X connect 7 0 1 0;
#X restore 609 393 pd halftone to factor;
#X obj 610 159 - 24;
#X obj 9 0 inlet~;
#X obj 258 9 loadbang;
#X msg 38 552 \$1 20;
#X obj 8 621 *~;
#X obj 191 117 vsl 15 90 0 3 0 0 empty empty gn 0 -9 0 10 -262144 -1
-1 1411 1;
#X msg 334 47 0.75;
#X obj 27 29 delwrite~ \$0-delay 200;
#X msg 398 51 0;
#X obj 1087 46 inlet;
#X obj 1091 69 tgl 15 0 empty empty empty 17 7 0 10 -262144 -1 -1 1
1;
#X obj 1092 91 switch~;
#X obj 451 87 inlet;
#X obj 451 109 route 0 1 2 3;
#X msg 240 43 -12;
#X msg 275 568 \$1 20;
#X obj 271 595 line~;
#X msg 680 566 \$1 20;
#X obj 656 610 line~;
#X obj 251 117 vsl 15 90 0 3 0 0 empty empty 2-dwn 0 -9 0 10 -262144
-1 -1 1411 1;
#X obj 217 117 vsl 15 90 0 3 0 0 empty empty 1-dwn 0 -9 0 10 -262144
-1 -1 1556 1;
#X obj 238 619 *~;
#X obj 611 623 *~;
#X text 126 124 gains;
#X msg 272 45 -24;
#X obj 37 593 line~;
#X msg 383 176 1;
#X connect 2 0 17 0;
#X connect 3 0 7 0;
#X connect 5 0 45 0;
#X connect 6 0 13 0;
#X connect 7 0 8 0;
#X connect 8 0 5 0;
#X connect 13 0 3 0;
#X connect 14 0 18 0;
#X connect 16 0 46 0;
#X connect 17 0 23 0;
#X connect 18 0 19 0;
#X connect 19 0 16 0;
#X connect 23 0 14 0;
#X connect 24 0 2 0;
#X connect 25 0 31 0;
#X connect 25 0 28 0;
#X connect 26 0 38 0;
#X connect 26 0 48 0;
#X connect 26 0 30 0;
#X connect 26 0 32 0;
#X connect 26 0 50 0;
#X connect 27 0 49 0;
#X connect 28 0 1 0;
#X connect 29 0 27 0;
#X connect 30 0 29 0;
#X connect 32 0 44 0;
#X connect 32 0 43 0;
#X connect 33 0 34 0;
#X connect 34 0 35 0;
#X connect 36 0 37 0;
#X connect 37 0 29 0;
#X connect 37 1 44 0;
#X connect 37 2 43 0;
#X connect 38 0 6 0;
#X connect 39 0 40 0;
#X connect 40 0 45 1;
#X connect 41 0 42 0;
#X connect 42 0 46 1;
#X connect 43 0 41 0;
#X connect 44 0 39 0;
#X connect 45 0 1 0;
#X connect 46 0 1 0;
#X connect 48 0 2 0;
#X connect 49 0 28 1;
#X connect 50 0 5 1;
#X connect 50 0 16 1;
#X coords 0 -1 1 1 186 116 2 100 100;
