#N canvas 3 54 1425 818 10;
#X obj 101 101 cnv 15 184 114 empty empty Overdrive 2 12 0 14 -233017
-66577 0;
#X obj 104 189 cnv 15 130 20 empty empty TubeScuttle_V0.2 0 10 0 12
-183065 -66577 0;
#X obj 382 113 inlet~;
#X obj 383 539 outlet~;
#N canvas 0 50 566 300 spigot~ 0;
#X obj 63 24 inlet~;
#X obj 95 75 == 0;
#X obj 174 75 == 1;
#X obj 64 174 *~;
#X obj 180 166 *~;
#X obj 179 246 outlet~;
#X obj 63 244 outlet~;
#X obj 233 23 inlet;
#X connect 0 0 3 0;
#X connect 0 0 4 0;
#X connect 1 0 3 1;
#X connect 2 0 4 1;
#X connect 3 0 6 0;
#X connect 4 0 5 0;
#X connect 7 0 1 0;
#X connect 7 0 2 0;
#X restore 382 148 pd spigot~;
#X obj 384 513 +~;
#X obj 243 102 tgl 15 0 empty empty On 17 7 0 10 -262144 -1 -1 0 1
;
#X msg 308 49 0;
#X obj 369 207 loadbang;
#N canvas 785 50 450 300 1stStage 0;
#X obj 46 103 +~ 4.2;
#X obj 45 152 -~ 0.8;
#X obj 46 128 clip~ 1.8 100;
#X obj 46 12 inlet~;
#X obj 45 204 outlet~;
#X obj 45 42 hip~ 35.6;
#X connect 0 0 2 0;
#X connect 1 0 4 0;
#X connect 2 0 1 0;
#X connect 3 0 5 0;
#X connect 5 0 0 0;
#X restore 449 187 pd 1stStage;
#N canvas 128 50 488 646 2ndStage 0;
#X obj 20 12 inlet~;
#X obj 20 508 outlet~;
#X obj 200 10 inlet;
#X obj 84 243 *~;
#X obj 24 434 lop~;
#X obj 79 433 + 5600;
#X obj 152 433 * 5560;
#X floatatom 79 464 10 0 0 0 - - -, f 10;
#X obj 20 298 clip~ -100 15;
#X obj 277 299 hsl 128 15 0.01 0.1 0 0 empty empty empty -2 -8 0 10
-262144 -1 -1 5644 1;
#X floatatom 274 319 5 0 0 0 - - -, f 5;
#X obj 274 251 loadbang;
#X obj 213 300 * -1;
#X obj 22 324 *~ 10;
#X obj 21 54 hip~ 720;
#X obj 22 362 hip~ 7.2;
#X obj 297 10 inlet;
#N canvas 0 50 566 300 spigot~ 0;
#X obj 63 24 inlet~;
#X obj 95 75 == 0;
#X obj 174 75 == 1;
#X obj 64 174 *~;
#X obj 180 166 *~;
#X obj 179 246 outlet~;
#X obj 63 244 outlet~;
#X obj 233 23 inlet;
#X connect 0 0 3 0;
#X connect 0 0 4 0;
#X connect 1 0 3 1;
#X connect 2 0 4 1;
#X connect 3 0 6 0;
#X connect 4 0 5 0;
#X connect 7 0 1 0;
#X connect 7 0 2 0;
#X restore 19 83 pd spigot~;
#X obj 20 268 +~;
#X obj 16 169 *~;
#X msg 274 274 0.05;
#X obj 122 244 + 1.3;
#X obj 172 244 * 3;
#X obj 52 167 / 1.7;
#X connect 0 0 14 0;
#X connect 2 0 6 0;
#X connect 2 0 22 0;
#X connect 2 0 23 0;
#X connect 3 0 18 1;
#X connect 4 0 1 0;
#X connect 5 0 4 1;
#X connect 5 0 7 0;
#X connect 6 0 5 0;
#X connect 8 0 13 0;
#X connect 9 0 10 0;
#X connect 10 0 8 2;
#X connect 10 0 12 0;
#X connect 11 0 20 0;
#X connect 12 0 8 1;
#X connect 13 0 15 0;
#X connect 14 0 17 0;
#X connect 15 0 4 0;
#X connect 16 0 17 1;
#X connect 17 0 19 0;
#X connect 17 1 3 0;
#X connect 18 0 8 0;
#X connect 19 0 18 0;
#X connect 20 0 9 0;
#X connect 21 0 3 1;
#X connect 22 0 21 0;
#X connect 23 0 19 1;
#X restore 449 226 pd 2ndStage;
#X obj 107 123 hsl 100 15 0 10 0 0 empty empty Drive -2 8 0 10 -262144
-1 -1 198 1;
#X obj 107 143 hsl 100 15 0.01 1 1 0 empty empty Level -2 8 0 10 -262144
-1 -1 6440 1;
#X obj 107 163 hsl 100 15 0.01 1 0 0 empty empty Tone -2 8 0 10 -262144
-1 -1 1900 1;
#X msg 337 246 0.2;
#X obj 488 333 hip~ 3200;
#X obj 488 360 *~;
#X obj 446 406 +~;
#X obj 443 448 *~;
#X obj 223 69 tgl 15 0 empty empty GainUP 17 7 0 10 -262144 -1 -1 0
1;
#X obj 568 334 hip~ 3200;
#X obj 568 359 *~;
#X obj 481 449 * 3;
#X obj 450 264 lop~ 723;
#X obj 530 361 * 3;
#X obj 601 360 * 0.5;
#X obj 444 496 hip~ 1.59;
#X obj 646 61 inlet;
#X obj 885 62 inlet;
#X obj 646 83 route 0 1 2;
#X obj 885 92 tgl 15 0 empty empty empty 17 7 0 10 -262144 -1 -1 0
1;
#X obj 885 112 switch~;
#X obj 879 220 expr pow(10 \, abs($f1-1)*-2);
#X obj 678 218 expr pow(10 \, abs($f1-1)*-2);
#X obj 628 215 * 10;
#X connect 2 0 4 0;
#X connect 4 0 5 0;
#X connect 4 1 9 0;
#X connect 5 0 3 0;
#X connect 6 0 4 1;
#X connect 7 0 19 0;
#X connect 8 0 7 0;
#X connect 8 0 14 0;
#X connect 9 0 10 0;
#X connect 10 0 23 0;
#X connect 10 0 20 0;
#X connect 11 0 10 1;
#X connect 12 0 22 0;
#X connect 13 0 24 0;
#X connect 13 0 25 0;
#X connect 14 0 11 0;
#X connect 14 0 12 0;
#X connect 14 0 13 0;
#X connect 15 0 16 0;
#X connect 16 0 17 1;
#X connect 17 0 18 0;
#X connect 18 0 26 0;
#X connect 19 0 10 2;
#X connect 20 0 21 0;
#X connect 21 0 17 1;
#X connect 22 0 18 1;
#X connect 23 0 17 0;
#X connect 23 0 15 0;
#X connect 24 0 16 1;
#X connect 25 0 21 1;
#X connect 26 0 5 1;
#X connect 27 0 29 0;
#X connect 28 0 30 0;
#X connect 29 0 34 0;
#X connect 29 1 33 0;
#X connect 29 2 32 0;
#X connect 30 0 31 0;
#X connect 30 0 6 0;
#X connect 32 0 13 0;
#X connect 33 0 12 0;
#X connect 34 0 11 0;
#X coords 0 -1 1 1 186 116 2 100 100;
