#N canvas 0 54 1366 686 10;
#X obj 398 -1 tgl 15 0 empty empty empty 17 7 0 10 -262144 -1 -1 0
1;
#X obj 366 -240 hradio 15 1 0 22 empty empty empty 0 -8 0 10 -262144
-1 -1 0;
#X obj 375 -1 tgl 15 0 empty empty empty 17 7 0 10 -262144 -1 -1 0
1;
#X obj 452 -1 tgl 15 0 empty empty empty 17 7 0 10 -262144 -1 -1 0
1;
#X obj 423 -1 tgl 15 0 empty empty empty 17 7 0 10 -262144 -1 -1 0
1;
#X obj 527 -1 tgl 15 0 empty empty empty 17 7 0 10 -262144 -1 -1 0
1;
#X obj 484 -1 tgl 15 0 empty empty empty 17 7 0 10 -262144 -1 -1 0
1;
#X obj 624 -1 tgl 15 0 empty empty empty 17 7 0 10 -262144 -1 -1 0
1;
#X obj 575 -1 tgl 15 0 empty empty empty 17 7 0 10 -262144 -1 -1 0
1;
#X obj 678 -1 tgl 15 0 empty empty empty 17 7 0 10 -262144 -1 -1 0
1;
#X obj 655 -1 tgl 15 0 empty empty empty 17 7 0 10 -262144 -1 -1 0
1;
#X obj 782 -189 tgl 15 0 empty empty empty 17 7 0 10 -262144 -1 -1
0 1;
#X obj 703 -1 tgl 15 0 empty empty empty 17 7 0 10 -262144 -1 -1 0
1;
#X obj 732 -1 tgl 15 0 empty empty empty 17 7 0 10 -262144 -1 -1 0
1;
#X symbolatom 180 -1 10 0 0 0 - - -, f 10;
#X floatatom 249 -1 5 0 0 0 - - -, f 5;
#X floatatom 291 -1 5 0 0 0 - - -, f 5;
#X obj 47 -113 inlet~;
#X obj 47 583 outlet~, f 10;
#X obj 306 -241 inlet;
#X obj 895 -178 inlet;
#X obj 998 -123 loadbang;
#X obj 1002 -89 f \$1;
#X obj 1042 -90 f \$2;
#X floatatom 1002 -67 5 0 0 0 - - -, f 5;
#X floatatom 1042 -68 5 0 0 0 - - -, f 5;
#X obj 47 174 0-raw;
#X obj 243 174 chorus(s);
#X obj 767 -1 tgl 15 0 empty empty empty 17 7 0 10 -262144 -1 -1 0
1;
#X obj 791 -1 tgl 15 0 empty empty empty 17 7 0 10 -262144 -1 -1 0
1;
#X obj 820 -1 tgl 15 0 empty empty empty 17 7 0 10 -262144 -1 -1 0
1;
#X obj 827 174 delay(fb)(d);
#X obj 1030 174 delay(spectr)(d);
#X obj 437 174 compressor(d);
#X obj 848 -1 tgl 15 0 empty empty empty 17 7 0 10 -262144 -1 -1 0
1;
#X obj 877 -1 tgl 15 0 empty empty empty 17 7 0 10 -262144 -1 -1 0
1;
#X obj 906 -1 tgl 15 0 empty empty empty 17 7 0 10 -262144 -1 -1 0
1;
#X obj 930 -1 tgl 15 0 empty empty empty 17 7 0 10 -262144 -1 -1 0
1;
#X obj 957 -1 tgl 15 0 empty empty empty 17 7 0 10 -262144 -1 -1 0
1;
#X obj 989 -1 tgl 15 0 empty empty empty 17 7 0 10 -262144 -1 -1 1
1;
#X floatatom 364 -219 5 0 0 0 - - -, f 5;
#X obj 47 303 filter(s);
#X obj 243 303 flanger(s);
#X obj 827 303 octaver-harmonizer(p);
#X obj 1234 303 pitchshifter(d);
#X obj 628 303 looper(fw-bw)(v);
#X obj 437 303 fuzz(139);
#X obj 1030 303 overdrive(139);
#X obj 243 432 reverb(pure)(d);
#X obj 628 432 tremolo(d);
#X obj 827 432 vcf(d);
#X obj 1030 432 vibrato(d);
#X obj 437 432 vibrato(step)(g);
#X obj 1234 432 wha-wha(g);
#X obj 47 432 phaser(d);
#X obj 365 -71 unpack s f f f f f f f f f f f f f f f f f f f f f f
f, f 97;
#X obj 631 176 delay(3tap)(v);
#X obj 363 -139 ../matrix-sub, f 15;
#X obj 363 -117 list prepend matrix;
#X obj 361 -172 + 2;
#X obj 1232 176 distortion(d);
#X text 1222 118 feb 21 2019 reverted to diy2 dist;
#X connect 0 0 27 2;
#X connect 1 0 40 0;
#X connect 2 0 26 2;
#X connect 3 0 56 2;
#X connect 4 0 33 2;
#X connect 5 0 32 2;
#X connect 6 0 31 2;
#X connect 7 0 41 2;
#X connect 8 0 60 2;
#X connect 9 0 46 2;
#X connect 10 0 42 2;
#X connect 12 0 45 2;
#X connect 13 0 43 2;
#X connect 17 0 26 0;
#X connect 17 0 27 0;
#X connect 17 0 33 0;
#X connect 17 0 31 0;
#X connect 17 0 32 0;
#X connect 17 0 41 0;
#X connect 17 0 42 0;
#X connect 17 0 46 0;
#X connect 17 0 45 0;
#X connect 17 0 43 0;
#X connect 17 0 47 0;
#X connect 17 0 44 0;
#X connect 17 0 54 0;
#X connect 17 0 48 0;
#X connect 17 0 52 0;
#X connect 17 0 49 0;
#X connect 17 0 50 0;
#X connect 17 0 51 0;
#X connect 17 0 53 0;
#X connect 17 0 56 0;
#X connect 17 0 60 0;
#X connect 19 0 40 0;
#X connect 20 0 26 1;
#X connect 20 0 27 1;
#X connect 20 0 33 1;
#X connect 20 0 31 1;
#X connect 20 0 32 1;
#X connect 20 0 41 1;
#X connect 20 0 42 1;
#X connect 20 0 46 1;
#X connect 20 0 45 1;
#X connect 20 0 43 1;
#X connect 20 0 47 1;
#X connect 20 0 44 1;
#X connect 20 0 54 1;
#X connect 20 0 48 1;
#X connect 20 0 52 1;
#X connect 20 0 49 1;
#X connect 20 0 50 1;
#X connect 20 0 51 1;
#X connect 20 0 53 1;
#X connect 20 0 56 1;
#X connect 20 0 60 1;
#X connect 21 0 22 0;
#X connect 21 0 23 0;
#X connect 22 0 24 0;
#X connect 23 0 25 0;
#X connect 26 0 18 0;
#X connect 27 0 18 0;
#X connect 28 0 47 2;
#X connect 29 0 44 2;
#X connect 30 0 54 2;
#X connect 31 0 18 0;
#X connect 32 0 18 0;
#X connect 33 0 18 0;
#X connect 34 0 48 2;
#X connect 35 0 52 2;
#X connect 36 0 49 3;
#X connect 37 0 50 2;
#X connect 38 0 51 2;
#X connect 39 0 53 2;
#X connect 40 0 59 0;
#X connect 41 0 18 0;
#X connect 42 0 18 0;
#X connect 43 0 18 0;
#X connect 44 0 18 0;
#X connect 45 0 18 0;
#X connect 46 0 18 0;
#X connect 47 0 18 0;
#X connect 48 0 18 0;
#X connect 49 0 18 0;
#X connect 50 0 18 0;
#X connect 51 0 18 0;
#X connect 52 0 18 0;
#X connect 53 0 18 0;
#X connect 54 0 18 0;
#X connect 55 0 14 0;
#X connect 55 1 15 0;
#X connect 55 2 16 0;
#X connect 55 3 2 0;
#X connect 55 4 0 0;
#X connect 55 5 4 0;
#X connect 55 6 3 0;
#X connect 55 7 6 0;
#X connect 55 8 5 0;
#X connect 55 9 8 0;
#X connect 55 10 7 0;
#X connect 55 11 10 0;
#X connect 55 12 9 0;
#X connect 55 13 12 0;
#X connect 55 14 13 0;
#X connect 55 15 11 0;
#X connect 55 15 28 0;
#X connect 55 16 29 0;
#X connect 55 17 30 0;
#X connect 55 18 34 0;
#X connect 55 19 35 0;
#X connect 55 20 36 0;
#X connect 55 21 37 0;
#X connect 55 22 38 0;
#X connect 55 23 39 0;
#X connect 56 0 18 0;
#X connect 57 0 58 0;
#X connect 58 0 55 0;
#X connect 59 0 57 0;
#X connect 60 0 18 0;
#X coords 0 686 1 685 1100 400 0;
