#N canvas 0 54 1440 818 10;
#X obj 32 97 tone(v);
#X obj 214 75 tgl 15 0 empty empty empty 17 7 0 10 -262144 -1 -1 0
1;
#X obj 32 28 playsample~;
#X obj 33 239 dac~;
#X obj 279 51 eq3(d);
#X connect 0 0 3 0;
#X connect 0 0 3 1;
#X connect 1 0 0 2;
#X connect 2 0 0 0;
