#N canvas 122 183 1265 686 10;
#X obj 543 33 inlet;
#X obj 531 227 * 29.5;
#X obj 528 253 + 0.5;
#X obj 527 278 exp;
#X obj 529 302 log;
#X obj 799 13 inlet;
#X obj 311 76 +~;
#X text 691 129 input from soundcard;
#X obj 311 104 delwrite~ \$0-delay 2000;
#X obj 305 376 vd~ \$0-delay 2000;
#X obj 305 350 *~;
#X obj 305 243 pow 2;
#N canvas 704 278 202 319 trapezoid 0;
#X obj 25 124 phasor~ 1;
#X obj 25 199 abs~;
#X obj 25 176 *~ 2;
#X obj 25 251 clip~ 0 0.5;
#X obj 25 152 -~ 0.5;
#X obj 25 19 inlet~;
#X obj 25 282 outlet~;
#X obj 25 225 -~ 0.25;
#X text 74 43 resync;
#X msg 92 96 0.625;
#X msg 53 68 0.125;
#X text 93 67 higher note;
#X text 132 96 lower note;
#X connect 0 0 4 0;
#X connect 1 0 7 0;
#X connect 2 0 1 0;
#X connect 3 0 6 0;
#X connect 4 0 2 0;
#X connect 5 0 0 0;
#X connect 7 0 3 0;
#X connect 9 0 0 1;
#X connect 10 0 0 1;
#X restore 337 333 pd trapezoid;
#N canvas 607 285 240 245 depth 0;
#X obj 28 163 line~;
#X msg 28 137 \$1 100;
#X floatatom 54 111 5 0 0 0 - - -, f 5;
#X obj 28 94 /;
#X obj 36 66 t b f;
#X obj 28 29 inlet;
#X obj 69 29 inlet;
#X obj 28 195 outlet~;
#X connect 0 0 7 0;
#X connect 1 0 0 0;
#X connect 3 0 2 0;
#X connect 3 0 1 0;
#X connect 4 0 3 0;
#X connect 4 1 3 1;
#X connect 5 0 3 0;
#X connect 6 0 4 0;
#X restore 305 305 pd depth;
#X obj 305 468 hip~ 40;
#X text 685 150 Step-vibrato: step-wise modulation of variable speed
delay. The modulator is a trapezoid \, therefore you get three different
tones in a sequence of four notes:;
#X text 686 208 original - lower tone - original - higher tone;
#X text 686 238 Around vibrato depth value ~ 500 \, the lower tone
has playback speed zero. With vibrato depth above 500 \, the speed
of the lower tone is negative so the sound is played backwards.;
#X text 686 347 Katja Vetter jan 2012;
#X text 687 299 A few sweet spots appear on the vibrato depth scale
\, where undertone and overtone harmonize with the original.;
#X obj 305 496 outlet~;
#X obj 311 49 inlet~;
#X obj 588 413 line~;
#X msg 589 371 \$1 50;
#X obj 305 444 *~;
#X obj 546 55 route 0 1 2;
#X obj 101 101 cnv 15 184 114 empty empty step-vibrato 20 12 0 14 -233017
-66577 0;
#X obj 167 168 hsl 60 10 0 1 0 0 empty empty gain -2 -7 0 10 -204786
-262144 -355 0 1;
#X obj 130 139 hsl 60 10 0 1 0 0 empty empty depth -2 -7 0 10 -204786
-262144 -355 0 1;
#X obj 218 141 hsl 60 10 0 1 0 0 empty empty speed -2 -7 0 10 -204786
-262144 -355 0 1;
#X obj 147 165 cnv 12 15 13 empty empty 2 1 6 0 12 -33289 -262144 0
;
#X obj 109 138 cnv 12 15 13 empty empty 0 1 6 0 12 -33289 -262144 0
;
#X obj 198 138 cnv 12 15 13 empty empty 1 1 6 0 12 -33289 -262144 0
;
#X obj 799 35 tgl 15 0 empty empty empty 17 7 0 10 -262144 -1 -1 0
1;
#X obj 799 55 switch~;
#X obj 487 227 * 500;
#X connect 0 0 25 0;
#X connect 1 0 2 0;
#X connect 2 0 3 0;
#X connect 3 0 4 0;
#X connect 4 0 13 1;
#X connect 4 0 12 0;
#X connect 5 0 33 0;
#X connect 6 0 8 0;
#X connect 9 0 24 0;
#X connect 10 0 9 0;
#X connect 11 0 13 0;
#X connect 12 0 10 1;
#X connect 13 0 10 0;
#X connect 14 0 20 0;
#X connect 21 0 6 0;
#X connect 22 0 24 1;
#X connect 23 0 22 0;
#X connect 24 0 14 0;
#X connect 25 0 28 0;
#X connect 25 1 29 0;
#X connect 25 2 27 0;
#X connect 27 0 23 0;
#X connect 28 0 35 0;
#X connect 29 0 1 0;
#X connect 33 0 34 0;
#X connect 35 0 11 0;
#X coords 0 -1 1 1 186 116 2 100 100;
