#N canvas 3 54 1351 686 10;
#X obj 21 379 vcf~;
#X obj 374 101 +~ 1;
#X obj 381 132 *~ 0.5;
#X obj 141 131 hsl 128 15 700 6000 0 0 empty empty max-freq:1253 -2
-8 0 10 -262144 -1 -1 2054 1;
#X obj 141 160 hsl 128 15 0 700 0 0 empty empty min-freq:304 -2 -8
0 10 -262144 -1 -1 5515 1;
#X floatatom 218 255 6 0 0 0 - - -, f 6;
#X floatatom 159 282 6 0 0 0 - - -, f 6;
#X obj 85 297 -;
#X obj 85 275 bang;
#X obj 33 173 +~ 200;
#X obj 34 138 *~ 1500;
#X text 60 380 <-- Voltage-Controlled band-pass filter;
#X text 273 427 Pierre Massat \, GuitarExtended \, 2012.s;
#X obj 120 9 loadbang;
#X msg 118 34 5.3;
#X obj 20 -18 inlet~;
#X obj 20 411 outlet~;
#X obj 372 80 line~;
#X msg 372 57 \$1 20;
#X msg 159 301 label max-freq:\$1;
#X msg 217 275 label min-freq:\$1;
#X obj 140 190 hsl 128 15 0 20 0 0 empty empty Q:15 -2 -8 0 10 -262144
-1 -1 9525 1;
#X msg 285 242 label Q:\$1;
#X obj 107 119 vsl 15 90 0 1 0 0 empty empty in 0 -9 0 10 -262144 -1
-1 0 1;
#X obj 370 30 expr $f1*3.5+0.5;
#X obj 969 5 inlet;
#X obj 261 109 tgl 15 0 empty empty empty 17 7 0 10 -262144 -1 -1 1
1;
#X obj 969 47 switch~;
#X obj 244 -19 inlet;
#X obj 241 8 route 0 1 2 3;
#X obj 364 162 expr int(($f1*5300)+0.5)+700;
#X obj 580 161 expr int(($f1*700)+0.5);
#X obj 785 169 expr int(($f1*20)+0.5);
#X msg 168 35 0;
#X connect 0 0 16 0;
#X connect 1 0 2 0;
#X connect 2 0 10 0;
#X connect 3 0 7 0;
#X connect 4 0 5 0;
#X connect 4 0 7 1;
#X connect 4 0 8 0;
#X connect 4 0 9 1;
#X connect 5 0 20 0;
#X connect 6 0 19 0;
#X connect 7 0 6 0;
#X connect 7 0 10 1;
#X connect 8 0 7 0;
#X connect 9 0 0 1;
#X connect 10 0 9 0;
#X connect 13 0 14 0;
#X connect 13 0 33 0;
#X connect 14 0 21 0;
#X connect 15 0 0 0;
#X connect 17 0 1 0;
#X connect 18 0 17 0;
#X connect 19 0 3 0;
#X connect 20 0 4 0;
#X connect 21 0 22 0;
#X connect 21 0 0 2;
#X connect 22 0 21 0;
#X connect 23 0 24 0;
#X connect 24 0 18 0;
#X connect 25 0 26 0;
#X connect 26 0 27 0;
#X connect 28 0 29 0;
#X connect 29 0 30 0;
#X connect 29 1 31 0;
#X connect 29 2 32 0;
#X connect 30 0 3 0;
#X connect 31 0 4 0;
#X connect 32 0 21 0;
#X connect 33 0 23 0;
#X coords 0 -1 1 1 186 116 2 100 100;
