#N canvas 0 54 1366 686 10;
#X obj 101 52 cnv 15 354 346 empty empty compressor 2 6 0 18 -228856
-66577 0;
#X msg 720 615 COMPRESS;
#X obj 39 672 hsl 80 15 0 1 0 0 empty empty hold:40 -2 8 0 10 -262144
-1 -1 5100 1;
#X obj 321 580 hsl 80 15 0 100 0 0 empty empty limit:82 -2 8 0 10 -262144
-1 -1 6459 1;
#X obj 520 580 hsl 80 15 0.01 1 1 0 empty empty ratio:2:1 -2 8 0 10
-262144 -1 -1 4898 1;
#X obj 418 578 hsl 80 15 0 100 0 0 empty empty thresh:88 -2 8 0 10
-262144 -1 -1 6912 1;
#X obj 198 648 hsl 80 15 0 1 0 0 empty empty release:150 -2 8 0 10
-262144 -1 -1 3752 1;
#X msg 577 806 ratio \$1;
#X msg 176 921 set \$1 \$2 \$3;
#X obj 176 896 pack f f f;
#X obj 176 850 t b f;
#X obj 225 852 t b f;
#X obj 106 -29 loadbang;
#X obj 500 6 inlet~;
#X obj 641 7 inlet;
#X floatatom 448 771 5 0 0 0 - - -, f 5;
#X obj 680 811 *~;
#X obj 678 782 z~ 64;
#X floatatom 510 776 12 0 0 0 - - -, f 12;
#X msg 801 579 treshold \$1;
#X obj 86 792 + 0.5;
#X obj 86 814 int;
#X obj 512 710 * 100;
#X obj 512 732 int;
#X obj 512 754 / 100;
#X obj 446 715 + 0.5;
#X obj 448 743 int;
#X obj 41 790 + 0.5;
#X obj 42 822 int;
#X obj 340 687 + 0.5;
#X obj 342 715 int;
#N canvas 0 50 462 312 rh_scalelog 0;
#X obj 20 155 exp;
#X obj 20 107 *;
#X obj 20 130 +;
#X obj 98 87 log;
#X obj 194 84 log;
#X obj 123 123 t b f;
#X obj 123 145 -;
#X obj 20 183 outlet;
#X obj 20 19 inlet;
#X obj 98 23 inlet;
#X obj 194 24 inlet;
#X connect 0 0 7 0;
#X connect 1 0 2 0;
#X connect 2 0 0 0;
#X connect 3 0 2 1;
#X connect 3 0 5 0;
#X connect 4 0 6 0;
#X connect 5 0 6 0;
#X connect 5 1 6 1;
#X connect 6 0 1 1;
#X connect 8 0 1 0;
#X connect 9 0 3 0;
#X connect 10 0 4 0;
#X restore 45 757 pd rh_scalelog;
#X msg 92 733 1;
#X msg 138 731 300;
#N canvas 0 50 462 312 rh_scalelog 0;
#X obj 20 155 exp;
#X obj 20 107 *;
#X obj 20 130 +;
#X obj 98 87 log;
#X obj 194 84 log;
#X obj 123 123 t b f;
#X obj 123 145 -;
#X obj 20 183 outlet;
#X obj 20 19 inlet;
#X obj 98 23 inlet;
#X obj 194 24 inlet;
#X connect 0 0 7 0;
#X connect 1 0 2 0;
#X connect 2 0 0 0;
#X connect 3 0 2 1;
#X connect 3 0 5 0;
#X connect 4 0 6 0;
#X connect 5 0 6 0;
#X connect 5 1 6 1;
#X connect 6 0 1 1;
#X connect 8 0 1 0;
#X connect 9 0 3 0;
#X connect 10 0 4 0;
#X restore 157 769 pd rh_scalelog;
#X msg 202 743 10;
#X msg 247 742 3000;
#X obj 92 705 r \$0-loadbang;
#X obj 203 716 r \$0-loadbang;
#X obj 175 25 s \$0-loadbang;
#X floatatom 180 828 5 0 0 0 - - -, f 5;
#X floatatom 260 825 5 0 0 0 - - -, f 5;
#X msg 92 602 label hold:\$1;
#X msg 193 604 label release:\$1;
#X obj 959 555 hradio 15 1 0 20 empty empty empty 0 -8 0 10 -262144
-1 -1 3;
#X floatatom 959 660 5 0 0 0 - - -, f 5;
#X obj 959 639 + 1.5;
#X obj 960 607 * 0.5;
#X obj 959 575 - 2;
#X msg 553 458 label ratio:\$1:1;
#X obj 960 487 * 19;
#X obj 960 509 + 0.5;
#X obj 960 531 int;
#X msg 447 461 label thresh:\$1;
#X msg 518 361 label limit:\$1;
#X obj 414 548 * 100;
#X obj 519 285 * 100;
#N canvas 0 50 462 312 rh_scalelog 0;
#X obj 20 155 exp;
#X obj 20 107 *;
#X obj 20 130 +;
#X obj 98 87 log;
#X obj 194 84 log;
#X obj 123 123 t b f;
#X obj 123 145 -;
#X obj 20 183 outlet;
#X obj 20 19 inlet;
#X obj 98 23 inlet;
#X obj 194 24 inlet;
#X connect 0 0 7 0;
#X connect 1 0 2 0;
#X connect 2 0 0 0;
#X connect 3 0 2 1;
#X connect 3 0 5 0;
#X connect 4 0 6 0;
#X connect 5 0 6 0;
#X connect 5 1 6 1;
#X connect 6 0 1 1;
#X connect 8 0 1 0;
#X connect 9 0 3 0;
#X connect 10 0 4 0;
#X restore 521 546 pd rh_scalelog;
#X obj 560 493 r \$0-loadbang;
#X msg 620 462 1;
#X msg 560 521 0.01;
#X obj 643 41 route 0 1 2 3 4, f 41;
#X floatatom 348 760 5 0 0 0 - - -, f 5;
#X obj 440 890 pack f f f;
#X obj 450 843 t b f;
#X obj 507 856 t b f;
#X floatatom 450 807 5 0 0 0 - - -, f 5;
#X floatatom 511 830 5 0 0 0 - - -, f 5;
#X msg 439 919 compress \$1 \$2 \$3;
#X obj 110 94 mknob 112 0 0.5 1 0 0 empty empty thresh:88 -2 -6 0 10
-262144 -1 -1 20175 1;
#X obj 221 139 mknob 112 0 0 1 0 0 empty empty ratio:2:1 -2 -6 0 10
-262144 -1 -1 16678 1;
#X obj 341 85 mknob 112 0 0 1 0 0 empty empty limit:82 -2 -6 0 10 -262144
-1 -1 17089 1;
#X obj 341 231 mknob 112 0 0 1 0 0 empty empty release:150 -2 -6 0
10 -262144 -1 -1 12777 1;
#X obj 106 221 mknob 112 0 0 1 0 0 empty empty hold:40 -2 -6 0 10 -262144
-1 -1 17366 1;
#X obj 255 65 bng 36 250 50 0 empty empty reset 2 7 0 10 -262144 -1
-1;
#X obj 1016 19 inlet;
#X obj 1018 57 tgl 15 0 empty empty empty 17 7 0 10 -262144 -1 -1 1
1;
#X obj 1018 77 switch~;
#X obj 103 -1 t b b b b b b b;
#X obj 105 0 bng 15 250 50 0 empty empty empty 17 7 0 10 -262144 -1
-1;
#X obj 807 879 line~;
#X msg 809 853 \$1 20;
#X obj 676 906 *~;
#X obj 145 347 hsl 256 42 0 1 0 0 empty \$0-MASTER MASTER -2 18 0 36
-262144 -1 -1 12750 1;
#X msg 734 181 0.5;
#X obj 892 67 route size mst dw;
#X obj 547 94 * 0.5;
#X obj 547 116 + 0.5;
#X obj 677 939 outlet~;
#X obj 696 688 limiter~;
#X obj 677 389 *~;
#X obj 693 366 line~;
#X obj 693 310 f;
#X obj 693 290 dbtorms;
#X msg 694 336 \$1 20;
#X msg 691 263 120;
#X obj 520 331 expr ($f1*50)+50;
#X text 520 308 changed this 2019-04-15-14-41;
#X connect 1 0 89 0;
#X connect 2 0 31 0;
#X connect 3 0 29 0;
#X connect 4 0 22 0;
#X connect 4 0 50 0;
#X connect 5 0 25 0;
#X connect 6 0 34 0;
#X connect 8 0 89 0;
#X connect 9 0 8 0;
#X connect 10 0 9 0;
#X connect 10 1 9 1;
#X connect 11 0 9 0;
#X connect 11 1 9 2;
#X connect 12 0 79 0;
#X connect 13 0 90 0;
#X connect 14 0 61 0;
#X connect 15 0 19 0;
#X connect 15 0 53 0;
#X connect 15 0 66 0;
#X connect 16 0 82 0;
#X connect 17 0 16 0;
#X connect 18 0 7 0;
#X connect 18 0 67 0;
#X connect 20 0 21 0;
#X connect 21 0 41 0;
#X connect 22 0 23 0;
#X connect 23 0 24 0;
#X connect 24 0 18 0;
#X connect 25 0 26 0;
#X connect 26 0 15 0;
#X connect 27 0 28 0;
#X connect 28 0 40 0;
#X connect 29 0 30 0;
#X connect 30 0 9 0;
#X connect 30 0 54 0;
#X connect 30 0 62 0;
#X connect 31 0 27 0;
#X connect 32 0 31 1;
#X connect 33 0 31 2;
#X connect 34 0 20 0;
#X connect 35 0 34 1;
#X connect 36 0 34 2;
#X connect 37 0 32 0;
#X connect 37 0 33 0;
#X connect 38 0 35 0;
#X connect 38 0 36 0;
#X connect 40 0 10 0;
#X connect 40 0 42 0;
#X connect 41 0 11 0;
#X connect 41 0 43 0;
#X connect 42 0 2 0;
#X connect 42 0 73 0;
#X connect 43 0 6 0;
#X connect 43 0 72 0;
#X connect 44 0 48 0;
#X connect 45 0 49 0;
#X connect 46 0 45 0;
#X connect 47 0 46 0;
#X connect 48 0 47 0;
#X connect 49 0 4 0;
#X connect 49 0 70 0;
#X connect 50 0 51 0;
#X connect 51 0 52 0;
#X connect 52 0 44 0;
#X connect 53 0 5 0;
#X connect 53 0 69 0;
#X connect 54 0 3 0;
#X connect 54 0 71 0;
#X connect 55 0 5 0;
#X connect 57 0 4 0;
#X connect 58 0 60 0;
#X connect 58 0 59 0;
#X connect 58 0 84 0;
#X connect 59 0 57 2;
#X connect 60 0 57 1;
#X connect 61 0 86 0;
#X connect 61 1 71 0;
#X connect 61 2 70 0;
#X connect 61 3 73 0;
#X connect 61 4 72 0;
#X connect 61 5 85 0;
#X connect 62 0 63 0;
#X connect 63 0 68 0;
#X connect 64 0 63 0;
#X connect 64 1 63 1;
#X connect 65 0 63 0;
#X connect 65 1 63 2;
#X connect 66 0 64 0;
#X connect 67 0 65 0;
#X connect 68 0 89 0;
#X connect 69 0 55 0;
#X connect 70 0 57 0;
#X connect 71 0 56 0;
#X connect 71 0 96 0;
#X connect 72 0 6 0;
#X connect 73 0 2 0;
#X connect 74 0 78 0;
#X connect 75 0 76 0;
#X connect 76 0 77 0;
#X connect 78 5 39 0;
#X connect 78 6 1 0;
#X connect 78 6 95 0;
#X connect 79 0 78 0;
#X connect 80 0 82 1;
#X connect 81 0 80 0;
#X connect 82 0 88 0;
#X connect 83 0 81 0;
#X connect 84 0 83 0;
#X connect 85 1 83 0;
#X connect 86 0 87 0;
#X connect 87 0 69 0;
#X connect 89 0 16 1;
#X connect 90 0 17 0;
#X connect 90 0 89 0;
#X connect 91 0 90 1;
#X connect 92 0 94 0;
#X connect 93 0 92 0;
#X connect 94 0 91 0;
#X connect 95 0 93 0;
#X connect 96 0 3 0;
#X coords 0 -1 1 1 356 350 2 100 50;
