#N canvas 0 2 1366 686 10;
#X msg 169 80 -1;
#X msg 205 79 0;
#X obj 180 50 loadbang;
#X obj 180 189 knob 32 32 -1 0 0 0 empty empty empty 0 -8 0 8 -262144
-1 -1 0 1;
#X obj 224 190 knob 32 32 0 1 0 0 empty empty empty 0 -8 0 8 -262144
-1 -1 0 1;
#X obj -88 159 overdrive~;
#X obj -32 373 +~;
#X obj 439 207 knob 32 32 1 40 0 0 empty empty empty 0 -8 0 8 -262144
-1 -1 0 1;
#X obj -111 262 clip~;
#X obj -91 369 +~;
#X obj -71 349 *~;
#X obj -14 343 *~;
#X obj -107 445 *~;
#X obj -55 445 *~;
#X obj -78 466 +~;
#X obj 284 202 knob 32 32 0 1 0 0 empty empty empty 0 -8 0 8 -262144
-1 -1 0 1;
#X text 308 231 hard;
#X text 257 232 soft;
#X obj 373 135 mtof;
#X obj 385 117 hsl 128 15 0 127 0 0 empty empty empty -2 -8 0 10 -262144
-1 -1 12700 1;
#X obj -122 160 *~;
#X obj 375 208 knob 32 32 0 1 0 0 empty empty empty 0 -8 0 8 -262144
-1 -1 0 1;
#X obj 338 261 expr 1-$f1;
#X obj 447 261 expr 1-$f1;
#X text 338 232 overd;
#X text 404 232 dist;
#X obj -86 186 *~;
#X obj -151 -5 inlet~;
#X obj -73 593 outlet~;
#X text 178 169 minus;
#X obj 119 204 knob 32 32 0 1 0 0 empty empty empty 0 -8 0 8 -262144
-1 -1 0 1;
#X text 224 170 pluss;
#X text 441 187 gain;
#X obj 485 205 knob 32 32 0 2 0 0 empty empty empty 0 -8 0 8 -262144
-1 -1 0 1;
#X obj -73 569 *~;
#X obj -141 501 *~;
#X text 475 187 master 0-2;
#X obj -79 532 lop~;
#X floatatom 409 136 5 0 0 0 - - -;
#X obj -151 39 hip~;
#X obj 246 117 hsl 128 15 0 127 0 0 empty empty empty -2 -8 0 10 -262144
-1 -1 0 1;
#X floatatom 244 135 5 0 0 0 - - -;
#X obj -75 317 z~ 50;
#X obj -24 319 z~ 50;
#X obj -118 89 clip~ -1 1;
#X obj -91 118 *~;
#X obj -141 120 *~;
#X obj 447 175 tgl 15 0 empty empty empty 17 7 0 10 -262144 -1 -1 0
1;
#X obj -42 101 == 1;
#X obj -1 101 == 0;
#X msg 382 77 127;
#X obj -78 504 +~;
#X text 372 190 karakter;
#X text 275 134 lowcut freq pre;
#X text 441 136 hicut freq post;
#X obj 447 284 s overdrive;
#X obj -60 183 r overdrive;
#X obj 405 261 s dist;
#X obj -126 475 r dist;
#X obj 516 261 s gain;
#X obj 561 262 s master;
#X obj -31 139 r gain;
#X obj 337 283 s soft;
#X obj -27 425 r soft;
#X obj 296 261 s hard;
#X obj -94 417 r hard;
#X text 517 277 send gain/master;
#X obj 233 260 s pluss;
#X text 288 297 send hard/soft klipping;
#X obj 179 260 s minus;
#X obj -39 229 r minus;
#X obj 11 227 r pluss;
#X text 29 263 hard/soft klipper;
#X text 13 342 sampledelay blendkontroll;
#X text -25 444 hard/softklipping blendkontroll;
#X text -56 503 overdrive/distortion blendkontroll;
#X obj -47 551 r master;
#X text -48 568 patch master volume;
#X obj 548 139 s lowpass;
#X obj -43 522 r lowpass;
#X text -24 158 gainseksjon;
#X obj 550 172 s ekstra;
#X obj -31 73 r ekstra;
#X text -67 117 ekstra gain+klipping av/på;
#X text 414 159 ekstra gain/klipping;
#X text -121 40 high pass filter;
#X obj 114 135 s highpass;
#X obj -130 18 r highpass;
#X text 184 158 klipping;
#X text 274 185 klipping;
#X text 145 276 klipping på minus- og plussiden;
#X text 10 318 sample-delay \, forsinker med 50 samples;
#X text 19 531 low pass filter;
#X text 400 310 send overdrive/distortio;
#X obj -46 402 *~ 1.125;
#X floatatom 185 231 5 0 0 0 - - -;
#X floatatom 223 232 5 0 0 0 - - -;
#X obj -134 63 *~ 3;
#X text -106 62 ekstra gain;
#X text 104 176 sampleblend;
#X text 8 -1 Cubic-soft-clip hentet fra http://puredata.hurleur.com/sujet-2453-cubic-soft-clip-distortion
;
#X obj -72 263 cubic-soft-clip;
#X text 502 593 Håkon Knutzen 2010;
#X connect 0 0 69 0;
#X connect 0 0 95 0;
#X connect 1 0 49 0;
#X connect 1 0 67 0;
#X connect 2 0 0 0;
#X connect 2 0 1 0;
#X connect 2 0 15 0;
#X connect 2 0 21 0;
#X connect 2 0 50 0;
#X connect 3 0 69 0;
#X connect 3 0 95 0;
#X connect 4 0 67 0;
#X connect 4 0 96 0;
#X connect 5 0 26 0;
#X connect 6 0 94 0;
#X connect 7 0 59 0;
#X connect 8 0 9 0;
#X connect 8 0 42 0;
#X connect 9 0 12 0;
#X connect 10 0 9 1;
#X connect 11 0 6 1;
#X connect 12 0 14 0;
#X connect 13 0 14 1;
#X connect 14 0 35 0;
#X connect 15 0 22 0;
#X connect 15 0 64 0;
#X connect 18 0 38 0;
#X connect 19 0 18 0;
#X connect 20 0 8 0;
#X connect 20 0 101 0;
#X connect 21 0 23 0;
#X connect 21 0 57 0;
#X connect 22 0 62 0;
#X connect 23 0 55 0;
#X connect 26 0 51 1;
#X connect 27 0 39 0;
#X connect 30 0 11 1;
#X connect 30 0 10 1;
#X connect 33 0 60 0;
#X connect 34 0 28 0;
#X connect 35 0 51 0;
#X connect 37 0 34 0;
#X connect 38 0 78 0;
#X connect 39 0 46 0;
#X connect 39 0 97 0;
#X connect 40 0 41 0;
#X connect 41 0 86 0;
#X connect 42 0 10 0;
#X connect 43 0 11 0;
#X connect 44 0 45 0;
#X connect 45 0 5 0;
#X connect 45 0 20 0;
#X connect 46 0 20 0;
#X connect 46 0 5 0;
#X connect 47 0 81 0;
#X connect 48 0 45 1;
#X connect 49 0 46 1;
#X connect 50 0 19 0;
#X connect 51 0 37 0;
#X connect 56 0 26 1;
#X connect 58 0 35 1;
#X connect 61 0 5 1;
#X connect 61 0 20 1;
#X connect 63 0 13 1;
#X connect 65 0 12 1;
#X connect 70 0 8 1;
#X connect 70 0 101 1;
#X connect 71 0 8 2;
#X connect 71 0 101 2;
#X connect 76 0 34 1;
#X connect 79 0 37 1;
#X connect 82 0 48 0;
#X connect 82 0 49 0;
#X connect 87 0 39 1;
#X connect 94 0 13 0;
#X connect 97 0 44 0;
#X connect 101 0 6 0;
#X connect 101 0 43 0;
#X coords 0 -1 1 1 440 150 1 100 100;
