#N canvas 514 133 450 365 12;
#X obj 218 207 *~;
#X obj 228 177 *~;
#X obj 219 245 /~ -3;
#X obj 199 321 outlet~;
#X obj 196 24 inlet~;
#X obj 263 25 inlet;
#X obj 312 24 inlet;
#X obj 205 66 clip~;
#X connect 0 0 2 0;
#X connect 1 0 0 1;
#X connect 2 0 3 0;
#X connect 4 0 7 0;
#X connect 5 0 7 1;
#X connect 6 0 7 2;
#X connect 7 0 1 0;
#X connect 7 0 1 1;
#X connect 7 0 0 0;
#X connect 7 0 3 0;
