#N canvas 0 54 1366 686 10;
#X obj 18 -333 adc~;
#X obj 89 -306 tgl 60 0 empty empty adc~|smp 2 7 0 12 -262144 -1 -1
1 1;
#X obj 324 -285 loadbang;
#X obj 316 -262 bng 15 250 50 0 empty empty empty 17 7 0 10 -262144
-1 -1;
#X obj 89 -226 ext/abs(v)/playsample~;
#X msg 330 -197 1;
#X obj 90 -342 r toADCSMP;
#X obj 1225 749 s SLOT3EFFNAME;
#X obj 1221 149 s SLOT1EFFNAME;
#X msg 1219 123 label \$1;
#X msg 1228 446 label \$1;
#X msg 1224 720 label \$1;
#X obj 1225 475 s SLOT2EFFNAME;
#X obj 1330 146 s SLOT1BYCLR;
#X floatatom 1332 120 5 0 0 0 - - -, f 5;
#X floatatom 1321 446 5 0 0 0 - - -, f 5;
#X obj 1320 472 s SLOT2BYCLR;
#X floatatom 1335 720 5 0 0 0 - - -, f 5;
#X obj 1336 745 s SLOT3BYCLR;
#X obj 18 -34 ext/abs(v)/abs_bypass(s)~;
#X obj 283 19 tgl 67 0 empty empty REVERB:OFF|ON 2 7 0 10 -262144 -1
-1 0 1;
#X obj 188 -223 tgl 67 0 empty empty CLEAN|DIRTY 17 7 0 10 -262144
-1 -1 0 1;
#X obj 87 20 ext/abs(v)/effs/reverb(pure)(d);
#X msg 381 -332 1 \$1;
#X obj 19 -108 ext/abs(v)/effs/eq3(d);
#X text 1168 623 local;
#X obj 16 185 ext/abs(v)/effs/zexy-limiter(compressor)~;
#X msg 109 -374 mst \$1;
#X obj 380 -374 * 0.5;
#X obj 316 -235 t b b b b;
#X obj 394 -161 ext/abs(v)/slot~ 1;
#X obj 714 -350 tgl 15 0 empty empty empty 17 7 0 10 -262144 -1 -1
0 1;
#X obj 770 -349 tgl 15 0 empty empty empty 17 7 0 10 -262144 -1 -1
0 1;
#X obj 716 -413 r REC;
#X obj 765 -413 r PLAY;
#X obj 714 -332 s RECR;
#X obj 773 -332 s PLAYR;
#X msg 292 -199 0;
#X obj 17 -158 ext/abs(v)/abs_bypass(s)~;
#X obj 17 153 ext/abs(v)/abs_bypass(s)~;
#X msg 184 -332 0 \$1;
#X msg 223 -332 1 \$1;
#X msg 265 -332 2 \$1;
#X msg 304 -332 3 \$1;
#X obj 189 -407 r lo;
#X obj 222 -407 r md;
#X obj 260 -407 r hi;
#X obj 301 -407 r pre;
#X msg 474 -332 0 \$1;
#X msg 513 -332 1 \$1;
#X msg 555 -332 2 \$1;
#X msg 594 -332 3 \$1;
#X msg 634 -332 4 \$1;
#X obj 475 -413 r th;
#X obj 514 -413 r lm;
#X obj 546 -413 r rt;
#X obj 587 -413 r at;
#X obj 634 -413 r re;
#X msg 432 -332 0 \$1;
#X obj 432 -413 r br;
#X obj 379 -413 r rs;
#X obj 909 -413 r revoffon;
#X obj 825 -413 r cleandirty;
#X obj 109 -413 r mst;
#X obj 16 552 ext/abs(v)/simple-recorder~(atemporanity)(woTables);
#X obj 137 634 tgl 15 0 empty empty empty 17 7 0 10 -262144 -1 -1 0
1;
#X obj 189 633 tgl 15 0 empty empty empty 17 7 0 10 -262144 -1 -1 0
1;
#X obj 18 669 dac~;
#X obj 208 575 sel 0 1;
#X msg 263 577 3 \$1;
#X msg 208 597 2 1;
#X msg 308 630 1 1;
#X obj 287 604 t b b;
#X obj 220 661 ext/abs(v)/filename-date;
#X obj 218 636 bng 15 250 50 0 empty empty empty 17 7 0 10 -262144
-1 -1;
#X obj 135 612 r RECR;
#X obj 188 607 r PLAYR;
#X obj 40 -132 s~ toTuner;
#X text 28 -301 just for \; this one \;;
#X obj 395 132 ext/abs(v)/slot~ 2;
#X obj 399 427 ext/abs(v)/slot~ 3;
#X connect 0 0 38 0;
#X connect 0 1 38 0;
#X connect 1 0 4 0;
#X connect 1 0 38 2;
#X connect 2 0 3 0;
#X connect 3 0 29 0;
#X connect 4 0 38 1;
#X connect 5 0 24 2;
#X connect 5 0 26 2;
#X connect 6 0 1 0;
#X connect 9 0 8 0;
#X connect 10 0 12 0;
#X connect 11 0 7 0;
#X connect 14 0 13 0;
#X connect 15 0 16 0;
#X connect 17 0 18 0;
#X connect 19 0 22 0;
#X connect 19 0 39 0;
#X connect 20 0 22 2;
#X connect 20 0 39 2;
#X connect 21 0 19 2;
#X connect 22 0 39 1;
#X connect 23 0 22 1;
#X connect 24 0 19 0;
#X connect 24 0 30 0;
#X connect 26 0 64 0;
#X connect 27 0 26 1;
#X connect 28 0 23 0;
#X connect 29 1 37 0;
#X connect 29 2 5 0;
#X connect 30 0 79 0;
#X connect 30 1 14 0;
#X connect 30 2 9 0;
#X connect 31 0 35 0;
#X connect 32 0 36 0;
#X connect 33 0 31 0;
#X connect 34 0 32 0;
#X connect 37 0 20 0;
#X connect 37 0 21 0;
#X connect 38 0 24 0;
#X connect 38 0 77 0;
#X connect 39 0 26 0;
#X connect 40 0 24 1;
#X connect 41 0 24 1;
#X connect 42 0 24 1;
#X connect 43 0 24 1;
#X connect 44 0 40 0;
#X connect 45 0 41 0;
#X connect 46 0 42 0;
#X connect 47 0 43 0;
#X connect 48 0 26 1;
#X connect 49 0 26 1;
#X connect 50 0 26 1;
#X connect 51 0 26 1;
#X connect 52 0 26 1;
#X connect 53 0 48 0;
#X connect 54 0 49 0;
#X connect 55 0 50 0;
#X connect 56 0 51 0;
#X connect 57 0 52 0;
#X connect 58 0 22 1;
#X connect 59 0 58 0;
#X connect 60 0 28 0;
#X connect 61 0 20 0;
#X connect 62 0 21 0;
#X connect 63 0 27 0;
#X connect 64 0 67 0;
#X connect 64 0 67 1;
#X connect 65 0 68 0;
#X connect 66 0 69 0;
#X connect 68 0 70 0;
#X connect 68 1 72 0;
#X connect 69 0 64 1;
#X connect 70 0 64 1;
#X connect 71 0 64 1;
#X connect 72 0 71 0;
#X connect 72 1 74 0;
#X connect 73 0 64 2;
#X connect 74 0 73 0;
#X connect 75 0 65 0;
#X connect 76 0 66 0;
#X connect 79 0 80 0;
#X connect 79 1 15 0;
#X connect 79 2 10 0;
#X connect 80 0 19 1;
#X connect 80 1 17 0;
#X connect 80 2 11 0;
#X coords 0 686 1 685 1200 864 0;
